<svg xmlns="http://www.w3.org/2000/svg" xmlns:xlink="http://www.w3.org/1999/xlink" width="100.949" height="115.75" viewBox="0 0 100.949 115.75"><defs><clipPath id="a"><rect width="100.949" height="115.75" fill="none"/></clipPath></defs><g clip-path="url(#a)"><g transform="translate(0.5 0.5)"><rect width="0.899" height="2.654" transform="translate(70.586 76.553)" fill="#050001" stroke="#000" stroke-width="1"/><rect width="0.899" height="2.654" transform="translate(70.586 82.901)" fill="#050001" stroke="#000" stroke-width="1"/><rect width="0.899" height="2.655" transform="translate(70.586 89.247)" fill="#050001" stroke="#000" stroke-width="1"/><rect width="0.899" height="2.655" transform="translate(70.586 95.592)" fill="#050001" stroke="#000" stroke-width="1"/><rect width="0.899" height="2.654" transform="translate(65.873 76.553)" fill="#050001" stroke="#000" stroke-width="1"/><rect width="0.899" height="2.654" transform="translate(65.873 82.901)" fill="#050001" stroke="#000" stroke-width="1"/><rect width="0.899" height="2.655" transform="translate(65.873 89.247)" fill="#050001" stroke="#000" stroke-width="1"/><rect width="0.899" height="2.654" transform="translate(32.662 76.553)" fill="#050001" stroke="#000" stroke-width="1"/><rect width="0.899" height="2.654" transform="translate(32.662 82.901)" fill="#050001" stroke="#000" stroke-width="1"/><rect width="0.899" height="2.655" transform="translate(32.662 89.247)" fill="#050001" stroke="#000" stroke-width="1"/><rect width="0.899" height="2.655" transform="translate(32.662 95.592)" fill="#050001" stroke="#000" stroke-width="1"/><rect width="0.899" height="2.654" transform="translate(37.375 76.553)" fill="#050001" stroke="#000" stroke-width="1"/><rect width="0.899" height="2.654" transform="translate(37.375 82.901)" fill="#050001" stroke="#000" stroke-width="1"/><rect width="0.899" height="2.655" transform="translate(37.375 89.247)" fill="#050001" stroke="#000" stroke-width="1"/><path d="M44.084,86.128h2.643V83.06H44.084Zm.9-2.169h.845v1.27h-.845Z" transform="translate(1.055 15.903)" fill="#050001" stroke="#000" stroke-width="1"/><path d="M55.585,83.06H52.91v3.068h2.675Zm-.9,2.169h-.877v-1.27h.877Z" transform="translate(3.419 15.903)" fill="#050001" stroke="#000" stroke-width="1"/><path d="M48.447,86.128h2.675V83.06H48.447Zm.9-2.169h.877v1.27h-.877Z" transform="translate(2.223 15.903)" fill="#050001" stroke="#000" stroke-width="1"/><path d="M47.78,35.647h4.366V30.323H47.78Zm.9-4.425h2.568v3.527H48.679Z" transform="translate(2.045 1.781)" fill="#050001" stroke="#000" stroke-width="1"/><rect width="0.899" height="2.653" transform="translate(42.124 57.617)" fill="#050001" stroke="#000" stroke-width="1"/><rect width="0.899" height="2.653" transform="translate(61.124 57.617)" fill="#050001" stroke="#000" stroke-width="1"/><rect width="0.899" height="2.654" transform="translate(42.124 63.964)" fill="#050001" stroke="#000" stroke-width="1"/><rect width="0.899" height="2.654" transform="translate(61.124 63.964)" fill="#050001" stroke="#000" stroke-width="1"/><rect width="0.899" height="2.653" transform="translate(56.329 57.617)" fill="#050001" stroke="#000" stroke-width="1"/><rect width="0.899" height="2.654" transform="translate(56.329 63.964)" fill="#050001" stroke="#000" stroke-width="1"/><rect width="0.899" height="2.654" transform="translate(56.329 70.31)" fill="#050001" stroke="#000" stroke-width="1"/><rect width="0.899" height="2.655" transform="translate(56.329 76.658)" fill="#050001" stroke="#000" stroke-width="1"/><rect width="0.899" height="2.654" transform="translate(56.329 83.004)" fill="#050001" stroke="#000" stroke-width="1"/><rect width="0.899" height="2.654" transform="translate(56.329 89.352)" fill="#050001" stroke="#000" stroke-width="1"/><rect width="0.899" height="2.653" transform="translate(51.606 57.617)" fill="#050001" stroke="#000" stroke-width="1"/><rect width="0.899" height="2.654" transform="translate(51.606 63.964)" fill="#050001" stroke="#000" stroke-width="1"/><rect width="0.899" height="2.654" transform="translate(51.606 70.31)" fill="#050001" stroke="#000" stroke-width="1"/><rect width="0.899" height="2.655" transform="translate(51.606 76.658)" fill="#050001" stroke="#000" stroke-width="1"/><rect width="0.899" height="2.654" transform="translate(51.606 83.004)" fill="#050001" stroke="#000" stroke-width="1"/><rect width="0.899" height="2.654" transform="translate(51.606 89.352)" fill="#050001" stroke="#000" stroke-width="1"/><rect width="0.899" height="2.653" transform="translate(46.883 57.617)" fill="#050001" stroke="#000" stroke-width="1"/><rect width="0.899" height="2.654" transform="translate(46.883 63.964)" fill="#050001" stroke="#000" stroke-width="1"/><rect width="0.899" height="2.654" transform="translate(46.883 70.31)" fill="#050001" stroke="#000" stroke-width="1"/><rect width="0.899" height="2.655" transform="translate(46.883 76.658)" fill="#050001" stroke="#000" stroke-width="1"/><rect width="0.899" height="2.654" transform="translate(46.883 83.004)" fill="#050001" stroke="#000" stroke-width="1"/><rect width="0.899" height="2.654" transform="translate(46.883 89.352)" fill="#050001" stroke="#000" stroke-width="1"/><rect width="0.899" height="3.611" transform="translate(42.124 46.214)" fill="#050001" stroke="#000" stroke-width="1"/><rect width="0.899" height="3.611" transform="translate(61.124 46.214)" fill="#050001" stroke="#000" stroke-width="1"/><rect width="0.899" height="3.611" transform="translate(56.329 46.214)" fill="#050001" stroke="#000" stroke-width="1"/><rect width="0.899" height="3.611" transform="translate(51.559 46.214)" fill="#050001" stroke="#000" stroke-width="1"/><rect width="0.899" height="3.611" transform="translate(46.883 46.214)" fill="#050001" stroke="#000" stroke-width="1"/><path d="M76.158,43.124a2.526,2.526,0,0,0-.474.045,3.237,3.237,0,0,0-5.787.468,2.342,2.342,0,0,0-.385-.032,2.286,2.286,0,0,0,0,4.573h6.646a2.527,2.527,0,1,0,0-5.053Zm0,4.154H69.512a1.388,1.388,0,1,1,0-2.775,1.37,1.37,0,0,1,.516.1l.485.195.12-.509a2.337,2.337,0,0,1,4.408-.41l.17.382.392-.141a1.628,1.628,0,1,1,.555,3.159Z" transform="translate(7.252 4.799)" fill="#050001" stroke="#000" stroke-width="1"/><path d="M63.118,23.967l-1.375-1.7a2.242,2.242,0,0,0-.806-4.054V15.7h1.615v-.9H60.937v-2.1h1.615v-.9H60.937V5h-.9v6.808H58.422v.9h1.617v2.1H58.422v.9h1.617v2.507a2.241,2.241,0,0,0-.807,4.054l-1.38,1.708A47.842,47.842,0,0,0,12.622,71.793c0,1.264.059,2.535.157,3.792-.057,0-.112-.021-.169-.021a4.131,4.131,0,0,0,0,8.261h1.542A47.9,47.9,0,1,0,63.118,23.967Zm-9.5,94.314q-1.066-.157-2.116-.361V101.137H69.6v16.769c-.7.138-1.408.264-2.12.37v-8.45H53.618ZM50.6,78.663v21.575H45.357v6.242h-8.03V78.663ZM37.327,109.79V107.38h3.814v2.411h.9V107.38h3.317v4.943H36.7v.006a47,47,0,0,1-6.911-4.949h6.641v2.411Zm8.03,3.431v3.07a46.9,46.9,0,0,1-7.069-3.07Zm.9,2.71V101.137H50.6v16.608c-1.475-.316-2.924-.71-4.347-1.161ZM70.5,101.137h4.23v15.456q-2.076.66-4.232,1.125Zm5.131,12.084H82.7a46.752,46.752,0,0,1-7.063,3.067Zm0-.9v-4.9h3.433v2.162h.9v-2.162h3.814v2.162h.9v-2.162h6.446a47.228,47.228,0,0,1-6.843,4.9Zm8.145-5.8H75.632v-6.286H70.5V78.663H83.778ZM69.6,77.764v22.474H51.5V77.764H46.751V59.385h27.6V77.764ZM46.751,58.486V47.553h27.6V58.486Zm.585-11.832,3.75-4.016,3.751,4.016Zm18.966,0,3.75-4.016L73.8,46.654Zm-1.494,0H56.261V33.114h8.547ZM58.341,32.215V25.344h4.293v6.871Zm2.147-13.153a1.344,1.344,0,1,1-1.346,1.345,1.344,1.344,0,0,1,1.346-1.345Zm0,3.587a2.23,2.23,0,0,0,.381-.039l1.481,1.834H58.624l1.482-1.834a2.231,2.231,0,0,0,.382.039ZM9.38,79.694a3.233,3.233,0,0,1,4.33-3.04l.393.142.17-.381a4.488,4.488,0,0,1,8.468.787l.12.508.484-.194a2.806,2.806,0,1,1,1.044,5.41H12.61A3.235,3.235,0,0,1,9.38,79.694Zm5.7,4.13H24.39a3.7,3.7,0,0,0,0-7.41,3.66,3.66,0,0,0-.906.113,5.382,5.382,0,0,0-9.8-.922c-.1-1.262-.16-2.541-.16-3.813A46.939,46.939,0,0,1,57.442,24.9v7.312h-2.08V45.9L51.086,41.32l-4.335,4.643V40.054h-.9V58.486H43.806v.9h2.046V77.764H36.428v28.717H28.768A46.828,46.828,0,0,1,15.084,83.825Zm39.434,34.589v-7.689H66.584v7.666a46.57,46.57,0,0,1-12.067.023Zm37.638-11.89H84.677V77.764H75.251V59.385H77.3v-.9H75.251V40.054h-.9v5.87l-4.3-4.6-4.345,4.654V32.215H63.533V24.9a46.971,46.971,0,0,1,28.622,81.625Z" transform="translate(-8.479 -5)" fill="#050001" stroke="#000" stroke-width="1"/></g></g></svg>