<svg xmlns="http://www.w3.org/2000/svg" width="108.685" height="116.92" viewBox="0 0 108.685 116.92"><g transform="translate(-9.117 -4.083)"><path d="M113.159,75.357a4.142,4.142,0,0,0-1.021.127,5.4,5.4,0,0,0-2.972-2.53c.009-.28.021-.559.021-.842a48.059,48.059,0,0,0-12.3-32.147h.044v-.9h-.45a4.992,4.992,0,0,0-1.968.4V37.1a4.025,4.025,0,0,1,1.968-.507h.45v-.9h-.45a4.992,4.992,0,0,0-1.968.4V33.727a4.025,4.025,0,0,1,1.968-.507h.45v-.9h-.45a4.992,4.992,0,0,0-1.968.4V30.354a4.024,4.024,0,0,1,1.968-.507h.45v-.9h-.45a4.991,4.991,0,0,0-1.968.4V26.981a4.024,4.024,0,0,1,1.968-.507h.45v-.9h-.45a4.992,4.992,0,0,0-1.968.4V23.609a4.024,4.024,0,0,1,1.968-.507h.45v-.9h-.45a4.992,4.992,0,0,0-1.968.4V20.236a4.024,4.024,0,0,1,1.968-.507h.45v-.9h-.45a4.931,4.931,0,0,0-2.4.606,5.153,5.153,0,0,0-4.382-.2V16.944h2.607v-.9H83.45V9.329H77.091V4.583h-.9V9.329H74.359v6.714h-6.7v.9h2.421v2.229a5.17,5.17,0,0,0-4.242.262,4.942,4.942,0,0,0-2.4-.606h-.45v.9h.45a4.026,4.026,0,0,1,2.019.532v2.364a4.992,4.992,0,0,0-2.019-.425h-.45v.9h.45a4.026,4.026,0,0,1,2.019.532v.5a49.209,49.209,0,0,0-8.85-.018v-.511a4.024,4.024,0,0,1,1.969-.507h.45v-.9h-.45a4.99,4.99,0,0,0-1.969.4V20.237a4.02,4.02,0,0,1,1.969-.507h.45v-.9h-.45a4.931,4.931,0,0,0-2.4.606,5.16,5.16,0,0,0-4.382-.2V16.944H54.4v-.9H45.54V9.329H39.18V4.583h-.9V9.329H36.448v6.714h-6.7v.9h2.421v2.229a5.172,5.172,0,0,0-4.243.261,4.94,4.94,0,0,0-2.4-.606h-.45v.9h.45a4.019,4.019,0,0,1,2.018.532v2.364a4.991,4.991,0,0,0-2.018-.424h-.45v.9h.45a4.019,4.019,0,0,1,2.018.532V26a4.988,4.988,0,0,0-2.018-.425h-.45v.9h.45a4.024,4.024,0,0,1,2.018.532V29.37a4.991,4.991,0,0,0-2.018-.424h-.45v.9h.45a4.019,4.019,0,0,1,2.018.532v2.364a4.991,4.991,0,0,0-2.018-.424h-.45v.9h.45a4.019,4.019,0,0,1,2.018.532v2.364a4.988,4.988,0,0,0-2.018-.425h-.45v.9h.45a4.024,4.024,0,0,1,2.018.532v2.364a4.991,4.991,0,0,0-2.018-.424h-.45v.9h.038a48.132,48.132,0,0,0-7.287,10.769,3.221,3.221,0,0,0-5.219.433,2.476,2.476,0,0,0-.47-.045,2.517,2.517,0,1,0,0,5.035h3.4A48.136,48.136,0,0,0,43.62,117.05l1,.1h-.754a48.149,48.149,0,0,0,63.905-33.506h5.387a4.142,4.142,0,1,0,0-8.284ZM12.134,55.256a1.616,1.616,0,1,1,.549-3.136l.395.144.171-.384a2.322,2.322,0,0,1,4.382.406l.119.507.485-.192a1.4,1.4,0,0,1,1.891,1.278,1.379,1.379,0,0,1-1.379,1.377Zm15.407-12.4a4.991,4.991,0,0,0-2.018-.424h-.45v.9h.45a4.019,4.019,0,0,1,2.018.532v2.364a4.988,4.988,0,0,0-2.018-.425h-.45v.9h.45a4.024,4.024,0,0,1,2.018.532v2.364a4.991,4.991,0,0,0-2.018-.424h-.45v.9h.45a4.019,4.019,0,0,1,2.018.532v2.364a4.991,4.991,0,0,0-2.018-.424h-.45v.9h.45a4.019,4.019,0,0,1,2.018.532v2.364a4.988,4.988,0,0,0-2.018-.425h-.45v.9h.45a4.024,4.024,0,0,1,2.018.532v2.364a4.991,4.991,0,0,0-2.018-.424h-.45v.9h.45a4.019,4.019,0,0,1,2.018.532V63.1a4.991,4.991,0,0,0-2.018-.424h-.45v.9h.45a4.019,4.019,0,0,1,2.018.532v2.364a4.988,4.988,0,0,0-2.018-.425h-.45v.9h.45a4.024,4.024,0,0,1,2.018.532v2.364a4.991,4.991,0,0,0-2.018-.424h-.45v.9h.45a4.02,4.02,0,0,1,2.018.532v2.364a4.991,4.991,0,0,0-2.018-.424h-.45v.9h.45a4.02,4.02,0,0,1,2.018.532v2.364a4.988,4.988,0,0,0-2.018-.425h-.45v.9h.45a4.024,4.024,0,0,1,2.018.532v2.364a4.991,4.991,0,0,0-2.018-.424h-.45v.9h.45a4.02,4.02,0,0,1,2.018.532v2.364a4.991,4.991,0,0,0-2.018-.424h-.45v.9h.45a4.019,4.019,0,0,1,2.018.532V86.7a4.992,4.992,0,0,0-2.018-.425h-.45v.9h.45a4.021,4.021,0,0,1,2.018.533v2.364a4.991,4.991,0,0,0-2.018-.424h-.45v.9h.45a4.019,4.019,0,0,1,2.018.532V93.45a4.991,4.991,0,0,0-2.018-.424h-.45v.9h.45a4.02,4.02,0,0,1,2.018.532v2.364a4.992,4.992,0,0,0-2.018-.425h-.45v.9h.45a4.021,4.021,0,0,1,2.018.533V100.2a4.991,4.991,0,0,0-2.018-.424h-.45v.9h.45a4.02,4.02,0,0,1,2.018.532v4.3A47.182,47.182,0,0,1,16.488,56.157h2.26a2.277,2.277,0,1,0-.352-4.526A47.21,47.21,0,0,1,25.955,40.36l.284-.3a3.9,3.9,0,0,1,1.3.436Zm4.628,66.191h-.651q-1.6-1.276-3.076-2.685v-2.532h3.727Zm0-6.118H28.442v-1.8a4.25,4.25,0,0,1,3.727-.025Zm0-2.818a5.235,5.235,0,0,0-3.727.021V97.762a4.239,4.239,0,0,1,3.727-.025Zm0-3.373a5.232,5.232,0,0,0-3.727.021V94.39a4.245,4.245,0,0,1,3.727-.025Zm0-3.372a5.227,5.227,0,0,0-3.727.02V91.017a4.25,4.25,0,0,1,3.727-.025Zm0-3.373a5.235,5.235,0,0,0-3.727.021V87.645a4.239,4.239,0,0,1,3.727-.025Zm0-3.373a5.232,5.232,0,0,0-3.727.021V84.272a4.245,4.245,0,0,1,3.727-.025Zm0-3.372a5.227,5.227,0,0,0-3.727.02V80.9a4.249,4.249,0,0,1,3.727-.025Zm0-3.373a5.231,5.231,0,0,0-3.727.021V77.527a4.235,4.235,0,0,1,3.727-.025Zm0-3.373a5.228,5.228,0,0,0-3.727.021V74.154a4.245,4.245,0,0,1,3.727-.025Zm0-3.372a5.227,5.227,0,0,0-3.727.02V70.782a4.249,4.249,0,0,1,3.727-.025Zm0-3.373a5.231,5.231,0,0,0-3.727.021V67.409a4.235,4.235,0,0,1,3.727-.025Zm0-3.373a5.228,5.228,0,0,0-3.727.021V64.036a4.243,4.243,0,0,1,3.727-.025Zm0-3.372a5.227,5.227,0,0,0-3.727.02V60.664a4.249,4.249,0,0,1,3.727-.025Zm0-3.373a5.231,5.231,0,0,0-3.727.021V57.291a4.235,4.235,0,0,1,3.727-.025Zm0-3.373a5.228,5.228,0,0,0-3.727.021V53.919a4.245,4.245,0,0,1,3.727-.025Zm0-3.372a5.227,5.227,0,0,0-3.727.02V50.546a4.249,4.249,0,0,1,3.727-.025Zm0-3.373a5.231,5.231,0,0,0-3.727.021V47.173a4.235,4.235,0,0,1,3.727-.025Zm0-3.373a5.228,5.228,0,0,0-3.727.021V43.8a4.25,4.25,0,0,1,3.727-.025Zm0-3.373a5.235,5.235,0,0,0-3.727.021V40.428a4.249,4.249,0,0,1,3.727-.025Zm0-3.372a5.231,5.231,0,0,0-3.727.021V37.056a4.235,4.235,0,0,1,3.727-.025Zm0-3.373a5.228,5.228,0,0,0-3.727.021V33.683a4.25,4.25,0,0,1,3.727-.025Zm0-3.373a5.235,5.235,0,0,0-3.727.021V30.311a4.249,4.249,0,0,1,3.727-.025Zm0-3.372a5.231,5.231,0,0,0-3.727.021V26.938a4.237,4.237,0,0,1,3.727-.025Zm0-3.373a5.228,5.228,0,0,0-3.727.021V23.565a4.25,4.25,0,0,1,3.727-.025Zm0-3.373a5.235,5.235,0,0,0-3.727.021V20.193a4.249,4.249,0,0,1,3.727-.025Zm5.18-12.315h7.291v5.813H37.349Zm.936,103.348-.049-.028h.049Zm0-.929H36.67q-1.859-1.119-3.6-2.4v-.293h5.215Zm0-3.6H33.07v-5.217h5.215Zm0-6.118H33.07v-1.7a6.628,6.628,0,0,1,5.215-.036Zm0-2.713a7.65,7.65,0,0,0-5.215.033V97.859a6.632,6.632,0,0,1,5.215-.036Zm0-3.372a7.645,7.645,0,0,0-5.215.032V94.487a6.638,6.638,0,0,1,5.215-.037Zm0-3.373a7.64,7.64,0,0,0-5.215.033V91.113a6.628,6.628,0,0,1,5.215-.036Zm0-3.373a7.65,7.65,0,0,0-5.215.033V87.741a6.632,6.632,0,0,1,5.215-.036Zm0-3.372a7.645,7.645,0,0,0-5.215.033V84.368a6.623,6.623,0,0,1,5.215-.037Zm0-3.373a7.633,7.633,0,0,0-5.215.033V81a6.628,6.628,0,0,1,5.215-.036Zm0-3.373a7.65,7.65,0,0,0-5.215.033V77.623a6.632,6.632,0,0,1,5.215-.036Zm0-3.372a7.645,7.645,0,0,0-5.215.033V74.251a6.623,6.623,0,0,1,5.215-.037Zm0-3.373a7.643,7.643,0,0,0-5.215.033V70.878a6.628,6.628,0,0,1,5.215-.036Zm0-3.372a7.65,7.65,0,0,0-5.215.033V67.505a6.632,6.632,0,0,1,5.215-.036Zm0-3.372a7.645,7.645,0,0,0-5.215.032V64.133a6.623,6.623,0,0,1,5.215-.037Zm0-3.373a7.643,7.643,0,0,0-5.215.033V60.76a6.628,6.628,0,0,1,5.215-.036Zm0-3.372a7.65,7.65,0,0,0-5.215.033V57.388a6.632,6.632,0,0,1,5.215-.036Zm0-3.372a7.648,7.648,0,0,0-5.215.032V54.015a6.623,6.623,0,0,1,5.215-.037Zm0-3.373a7.643,7.643,0,0,0-5.215.033V50.642a6.628,6.628,0,0,1,5.215-.036Zm0-3.372a7.65,7.65,0,0,0-5.215.033V47.27a6.633,6.633,0,0,1,5.215-.036Zm0-3.372a7.645,7.645,0,0,0-5.215.032V43.9a6.628,6.628,0,0,1,5.215-.036Zm0-3.373a7.65,7.65,0,0,0-5.215.033V40.524a6.625,6.625,0,0,1,5.215-.036Zm0-3.372a7.65,7.65,0,0,0-5.215.033V37.152a6.632,6.632,0,0,1,5.215-.036Zm0-3.372a7.645,7.645,0,0,0-5.215.032V33.779a6.628,6.628,0,0,1,5.215-.036Zm0-3.373a7.65,7.65,0,0,0-5.215.033V30.407a6.628,6.628,0,0,1,5.215-.036Zm0-3.372a7.65,7.65,0,0,0-5.215.033V27.034A6.632,6.632,0,0,1,38.284,27Zm0-3.372a7.645,7.645,0,0,0-5.215.032V23.661a6.628,6.628,0,0,1,5.215-.036Zm0-3.373a7.65,7.65,0,0,0-5.215.033V20.289a6.628,6.628,0,0,1,5.215-.036Zm6.648,93.6h-.895a47.057,47.057,0,0,1-4.852-2.194v-.5h5.747Zm0-3.6H39.185v-2.7h5.747Zm0-3.6H39.185v-5.217h5.747Zm0-6.118H39.185v-1.749a8.336,8.336,0,0,1,5.747.013Zm0-2.7a9.364,9.364,0,0,0-5.747-.012V97.812a8.335,8.335,0,0,1,5.747.013Zm0-3.372a9.359,9.359,0,0,0-5.747-.013V94.44a8.343,8.343,0,0,1,5.747.013Zm0-3.373a9.359,9.359,0,0,0-5.747-.012V91.067a8.336,8.336,0,0,1,5.747.013Zm0-3.373a9.364,9.364,0,0,0-5.747-.012V87.694a8.335,8.335,0,0,1,5.747.013Zm0-3.372a9.358,9.358,0,0,0-5.747-.012V84.322a8.329,8.329,0,0,1,5.747.013Zm0-3.372a9.352,9.352,0,0,0-5.747-.013V80.949a8.336,8.336,0,0,1,5.747.013Zm0-3.373a9.364,9.364,0,0,0-5.747-.012V77.577a8.335,8.335,0,0,1,5.747.013Zm0-3.372a9.359,9.359,0,0,0-5.747-.013V74.2a8.336,8.336,0,0,1,5.747.013Zm0-3.373a9.364,9.364,0,0,0-5.747-.012V70.831a8.336,8.336,0,0,1,5.747.013Zm0-3.372a9.364,9.364,0,0,0-5.747-.012V67.459a8.335,8.335,0,0,1,5.747.013Zm0-3.372a9.358,9.358,0,0,0-5.747-.012V64.086a8.336,8.336,0,0,1,5.747.013Zm0-3.373a9.364,9.364,0,0,0-5.747-.012V60.714a8.336,8.336,0,0,1,5.747.013Zm0-3.372a9.364,9.364,0,0,0-5.747-.012V57.341a8.335,8.335,0,0,1,5.747.013Zm0-3.372a9.359,9.359,0,0,0-5.747-.013V53.968a8.336,8.336,0,0,1,5.747.013Zm0-3.373a9.364,9.364,0,0,0-5.747-.012V50.6a8.336,8.336,0,0,1,5.747.013Zm0-3.372a9.364,9.364,0,0,0-5.747-.012V47.223a8.335,8.335,0,0,1,5.747.013Zm0-3.372a9.358,9.358,0,0,0-5.747-.012V43.85a8.336,8.336,0,0,1,5.747.013Zm0-3.373a9.364,9.364,0,0,0-5.747-.012V40.478a8.336,8.336,0,0,1,5.747.013Zm0-3.372a9.364,9.364,0,0,0-5.747-.012V37.105a8.335,8.335,0,0,1,5.747.013Zm0-3.372a9.359,9.359,0,0,0-5.747-.013V33.732a8.336,8.336,0,0,1,5.747.013Zm0-3.373a9.364,9.364,0,0,0-5.747-.012V30.36a8.335,8.335,0,0,1,5.747.013Zm0-3.372a9.359,9.359,0,0,0-5.747-.013V26.988A8.335,8.335,0,0,1,44.932,27Zm0-3.372a9.358,9.358,0,0,0-5.747-.012V23.615a8.336,8.336,0,0,1,5.747.013Zm0-3.373a9.364,9.364,0,0,0-5.747-.012V20.242a8.335,8.335,0,0,1,5.747.013ZM50.889,118.3q-2.2-.48-4.312-1.157h4.312Zm0-2.058H45.833v-2.7h5.056Zm0-3.6H45.833v-2.7h5.056Zm0-3.6H45.833v-5.217h5.056Zm0-6.118H45.833v-1.751a6.776,6.776,0,0,1,5.056-.015Zm0-2.737a7.8,7.8,0,0,0-5.056.013v-2.4a6.775,6.775,0,0,1,5.056-.016Zm0-3.373a7.8,7.8,0,0,0-5.056.014v-2.4a6.78,6.78,0,0,1,5.056-.015Zm0-3.373a7.8,7.8,0,0,0-5.056.014v-2.4a6.776,6.776,0,0,1,5.056-.015Zm0-3.372a7.8,7.8,0,0,0-5.056.013v-2.4a6.775,6.775,0,0,1,5.056-.016Zm0-3.373a7.8,7.8,0,0,0-5.056.014v-2.4a6.775,6.775,0,0,1,5.056-.015Zm0-3.373a7.794,7.794,0,0,0-5.056.014v-2.4a6.775,6.775,0,0,1,5.056-.015Zm0-3.372a7.8,7.8,0,0,0-5.056.013v-2.4a6.775,6.775,0,0,1,5.056-.016Zm0-3.373a7.8,7.8,0,0,0-5.056.014V74.2a6.775,6.775,0,0,1,5.056-.015Zm0-3.373a7.8,7.8,0,0,0-5.056.014v-2.4a6.775,6.775,0,0,1,5.056-.016Zm0-3.373a7.8,7.8,0,0,0-5.056.014v-2.4a6.775,6.775,0,0,1,5.056-.016Zm0-3.372a7.8,7.8,0,0,0-5.056.014v-2.4a6.775,6.775,0,0,1,5.056-.015Zm0-3.373a7.8,7.8,0,0,0-5.056.014v-2.4a6.775,6.775,0,0,1,5.056-.016Zm0-3.373a7.8,7.8,0,0,0-5.056.014v-2.4a6.775,6.775,0,0,1,5.056-.016Zm0-3.372a7.8,7.8,0,0,0-5.056.014v-2.4a6.775,6.775,0,0,1,5.056-.015Zm0-3.373a7.8,7.8,0,0,0-5.056.014v-2.4a6.775,6.775,0,0,1,5.056-.016Zm0-3.373a7.8,7.8,0,0,0-5.056.014v-2.4a6.776,6.776,0,0,1,5.056-.016Zm0-3.373a7.8,7.8,0,0,0-5.056.014v-2.4a6.775,6.775,0,0,1,5.056-.015Zm0-3.372a7.8,7.8,0,0,0-5.056.014v-2.4a6.775,6.775,0,0,1,5.056-.016Zm0-3.373a7.8,7.8,0,0,0-5.056.014V37.1a6.776,6.776,0,0,1,5.056-.016Zm0-3.373a7.8,7.8,0,0,0-5.056.014v-2.4a6.775,6.775,0,0,1,5.056-.015Zm0-3.372a7.8,7.8,0,0,0-5.056.014v-2.4a6.775,6.775,0,0,1,5.056-.016Zm0-3.373a7.8,7.8,0,0,0-5.056.014v-2.4a6.776,6.776,0,0,1,5.056-.016Zm0-3.373a7.8,7.8,0,0,0-5.056.014v-2.4a6.775,6.775,0,0,1,5.056-.015Zm0-3.372a7.8,7.8,0,0,0-5.056.014v-2.4a6.775,6.775,0,0,1,5.056-.016Zm0-3.373a7.715,7.715,0,0,0-5.521.194,9.209,9.209,0,0,0-6.65,0,7.588,7.588,0,0,0-5.648-.137V16.944H50.889ZM55.7,119.1q-1.981-.222-3.912-.6v-1.349H55.7Zm0-2.853H51.79v-2.7H55.7Zm0-3.6H51.79v-2.7H55.7Zm0-3.6H51.79v-5.217H55.7Zm0-6.118H51.79v-1.749a4.222,4.222,0,0,1,3.912-.025Zm0-2.776a5.2,5.2,0,0,0-3.912.023V97.812a4.225,4.225,0,0,1,3.912-.025Zm0-3.373a5.2,5.2,0,0,0-3.912.023V94.439a4.222,4.222,0,0,1,3.912-.025Zm0-3.373a5.2,5.2,0,0,0-3.912.023V91.067a4.222,4.222,0,0,1,3.912-.025Zm0-3.372a5.2,5.2,0,0,0-3.912.023V87.694a4.225,4.225,0,0,1,3.912-.025Zm0-3.373a5.2,5.2,0,0,0-3.912.023V84.321A4.222,4.222,0,0,1,55.7,84.3Zm0-3.373a5.2,5.2,0,0,0-3.912.023V80.949a4.222,4.222,0,0,1,3.912-.025Zm0-3.372a5.2,5.2,0,0,0-3.912.023V77.576a4.22,4.22,0,0,1,3.912-.025Zm0-3.373a5.2,5.2,0,0,0-3.912.023V74.2a4.222,4.222,0,0,1,3.912-.025Zm0-3.372a5.2,5.2,0,0,0-3.912.023V70.831a4.223,4.223,0,0,1,3.912-.024Zm0-3.372a5.2,5.2,0,0,0-3.912.022V67.458a4.222,4.222,0,0,1,3.912-.025Zm0-3.373a5.2,5.2,0,0,0-3.912.023V64.086a4.223,4.223,0,0,1,3.912-.025Zm0-3.372a5.2,5.2,0,0,0-3.912.023V60.713a4.224,4.224,0,0,1,3.912-.024Zm0-3.372a5.2,5.2,0,0,0-3.912.022V57.34a4.222,4.222,0,0,1,3.912-.025Zm0-3.373a5.2,5.2,0,0,0-3.912.023V53.968a4.222,4.222,0,0,1,3.912-.025Zm0-3.372a5.2,5.2,0,0,0-3.912.023V50.6a4.225,4.225,0,0,1,3.912-.024Zm0-3.372a5.2,5.2,0,0,0-3.912.022V47.223A4.222,4.222,0,0,1,55.7,47.2Zm0-3.373a5.2,5.2,0,0,0-3.912.023V43.85a4.222,4.222,0,0,1,3.912-.025Zm0-3.372a5.2,5.2,0,0,0-3.912.023V40.477a4.225,4.225,0,0,1,3.912-.024Zm0-3.372a5.2,5.2,0,0,0-3.912.022V37.1A4.222,4.222,0,0,1,55.7,37.08Zm0-3.373a5.2,5.2,0,0,0-3.912.023V33.732a4.222,4.222,0,0,1,3.912-.025Zm0-3.372a5.2,5.2,0,0,0-3.912.023V30.36a4.228,4.228,0,0,1,3.912-.025Zm0-3.372a5.2,5.2,0,0,0-3.912.022V26.987a4.222,4.222,0,0,1,3.912-.025Zm0-3.373a5.2,5.2,0,0,0-3.912.023V23.615A4.222,4.222,0,0,1,55.7,23.59Zm0-3.372a5.2,5.2,0,0,0-3.912.023V20.242a4.228,4.228,0,0,1,3.912-.025Zm9.75,96.6c-1.468.138-2.953.214-4.456.214-1.482,0-2.946-.077-4.393-.211v-2.044h8.85Zm0-93.19a5,5,0,0,0-2.019-.425h-.45v.9h.45a4.026,4.026,0,0,1,2.019.533v2.364a4.992,4.992,0,0,0-2.019-.425h-.45v.9h.45a4.026,4.026,0,0,1,2.019.532v2.364a4.992,4.992,0,0,0-2.019-.425h-.45v.9h.45a4.026,4.026,0,0,1,2.019.532v2.364a5,5,0,0,0-2.019-.425h-.45v.9h.45a4.026,4.026,0,0,1,2.019.533v2.364a4.992,4.992,0,0,0-2.019-.425h-.45v.9h.45a4.026,4.026,0,0,1,2.019.532v2.364a4.992,4.992,0,0,0-2.019-.425h-.45v.9h.45a4.026,4.026,0,0,1,2.019.532v2.364a5,5,0,0,0-2.019-.425h-.45v.9h.45a4.026,4.026,0,0,1,2.019.533v2.364a4.992,4.992,0,0,0-2.019-.425h-.45v.9h.45a4.026,4.026,0,0,1,2.019.532v2.364a4.992,4.992,0,0,0-2.019-.425h-.45v.9h.45a4.026,4.026,0,0,1,2.019.532v2.364a5,5,0,0,0-2.019-.425h-.45v.9h.45a4.026,4.026,0,0,1,2.019.533v2.364a4.992,4.992,0,0,0-2.019-.425h-.45v.9h.45a4.026,4.026,0,0,1,2.019.532V63.1a4.992,4.992,0,0,0-2.019-.425h-.45v.9h.45a4.026,4.026,0,0,1,2.019.532v2.364a5,5,0,0,0-2.019-.425h-.45v.9h.45a4.027,4.027,0,0,1,2.019.533v2.364a4.992,4.992,0,0,0-2.019-.425h-.45v.9h.45a4.026,4.026,0,0,1,2.019.532v2.364a4.992,4.992,0,0,0-2.019-.425h-.45v.9h.45a4.026,4.026,0,0,1,2.019.532v2.364a5,5,0,0,0-2.019-.425h-.45v.9h.45a4.026,4.026,0,0,1,2.019.533V79.96a4.992,4.992,0,0,0-2.019-.425h-.45v.9h.45a4.026,4.026,0,0,1,2.019.532v2.364a4.992,4.992,0,0,0-2.019-.425h-.45v.9h.45a4.026,4.026,0,0,1,2.019.532v2.365a4.993,4.993,0,0,0-2.019-.426h-.45v.9h.45a4.029,4.029,0,0,1,2.019.533v2.364a4.992,4.992,0,0,0-2.019-.425h-.45v.9h.45a4.026,4.026,0,0,1,2.019.532V93.45a4.992,4.992,0,0,0-2.019-.425h-.45v.9h.45a4.026,4.026,0,0,1,2.019.532v2.365a4.993,4.993,0,0,0-2.019-.426h-.45v.9h.45a4.029,4.029,0,0,1,2.019.533V100.2a4.992,4.992,0,0,0-2.019-.425h-.45v.9h.45a4.026,4.026,0,0,1,2.019.532v7.847H63.341v.9h2.111v2.7H63.341v.9h2.111v2.7H56.6v-2.7h1.969v-.9H56.6v-2.7h1.969v-.9H56.6v-7.872a4.024,4.024,0,0,1,1.969-.507h.45v-.9h-.45a4.99,4.99,0,0,0-1.969.4V97.807a4.024,4.024,0,0,1,1.969-.508h.45v-.9h-.45a4.993,4.993,0,0,0-1.969.4V94.434a4.024,4.024,0,0,1,1.969-.507h.45v-.9h-.45a4.99,4.99,0,0,0-1.969.4V91.061a4.024,4.024,0,0,1,1.969-.507h.45v-.9h-.45a4.99,4.99,0,0,0-1.969.4V87.689a4.024,4.024,0,0,1,1.969-.508h.45v-.9h-.45a4.993,4.993,0,0,0-1.969.4V84.316a4.024,4.024,0,0,1,1.969-.507h.45v-.9h-.45a4.99,4.99,0,0,0-1.969.4V80.943a4.024,4.024,0,0,1,1.969-.507h.45v-.9h-.45a4.99,4.99,0,0,0-1.969.4V77.571a4.024,4.024,0,0,1,1.969-.507h.45v-.9h-.45a4.99,4.99,0,0,0-1.969.4V74.2a4.024,4.024,0,0,1,1.969-.507h.45v-.9h-.45a4.99,4.99,0,0,0-1.969.4V70.826a4.024,4.024,0,0,1,1.969-.507h.45v-.9h-.45a4.99,4.99,0,0,0-1.969.4V67.453a4.024,4.024,0,0,1,1.969-.507h.45v-.9h-.45a4.99,4.99,0,0,0-1.969.4V64.08a4.024,4.024,0,0,1,1.969-.507h.45v-.9h-.45a4.99,4.99,0,0,0-1.969.4V60.708a4.024,4.024,0,0,1,1.969-.507h.45v-.9h-.45a4.99,4.99,0,0,0-1.969.4V57.335a4.024,4.024,0,0,1,1.969-.507h.45v-.9h-.45a4.99,4.99,0,0,0-1.969.4V53.963a4.024,4.024,0,0,1,1.969-.507h.45v-.9h-.45a4.99,4.99,0,0,0-1.969.4V50.59a4.024,4.024,0,0,1,1.969-.507h.45v-.9h-.45a4.99,4.99,0,0,0-1.969.4V47.217a4.024,4.024,0,0,1,1.969-.507h.45v-.9h-.45a4.99,4.99,0,0,0-1.969.4V43.845a4.024,4.024,0,0,1,1.969-.507h.45v-.9h-.45a4.99,4.99,0,0,0-1.969.4V40.472a4.024,4.024,0,0,1,1.969-.507h.45v-.9h-.45a4.99,4.99,0,0,0-1.969.4V37.1a4.024,4.024,0,0,1,1.969-.507h.45v-.9h-.45a4.99,4.99,0,0,0-1.969.4V33.727a4.024,4.024,0,0,1,1.969-.507h.45v-.9h-.45a4.99,4.99,0,0,0-1.969.4V30.354a4.02,4.02,0,0,1,1.969-.507h.45v-.9h-.45a4.992,4.992,0,0,0-1.969.4V26.981a4.024,4.024,0,0,1,1.969-.507h.45v-.9h-.45a4.99,4.99,0,0,0-1.969.4v-.953a48.359,48.359,0,0,1,8.85.017Zm4.626,92.518q-1.839.36-3.725.574v-1.943h3.725Zm0-2.27H66.353v-2.7h3.725Zm0-3.6H66.353v-2.7h3.725Zm0-3.6H66.353v-5.217h3.725Zm0-6.118H66.353v-1.8a4.247,4.247,0,0,1,3.725-.025Zm0-2.818a5.231,5.231,0,0,0-3.725.021V97.763a4.244,4.244,0,0,1,3.725-.026Zm0-3.373a5.227,5.227,0,0,0-3.725.021V94.39a4.244,4.244,0,0,1,3.725-.025Zm0-3.372a5.227,5.227,0,0,0-3.725.021V91.017a4.247,4.247,0,0,1,3.725-.025Zm0-3.373a5.231,5.231,0,0,0-3.725.021V87.645a4.244,4.244,0,0,1,3.725-.026Zm0-3.373a5.227,5.227,0,0,0-3.725.021V84.272a4.244,4.244,0,0,1,3.725-.025Zm0-3.372a5.226,5.226,0,0,0-3.725.021V80.9a4.241,4.241,0,0,1,3.725-.025Zm0-3.372a5.231,5.231,0,0,0-3.725.021V77.527a4.237,4.237,0,0,1,3.725-.025Zm0-3.373a5.23,5.23,0,0,0-3.725.021V74.154a4.244,4.244,0,0,1,3.725-.025Zm0-3.372a5.228,5.228,0,0,0-3.725.021V70.781a4.241,4.241,0,0,1,3.725-.025Zm0-3.373a5.231,5.231,0,0,0-3.725.021V67.409a4.237,4.237,0,0,1,3.725-.025Zm0-3.373a5.23,5.23,0,0,0-3.725.021V64.036a4.244,4.244,0,0,1,3.725-.025Zm0-3.372a5.228,5.228,0,0,0-3.725.021V60.664a4.241,4.241,0,0,1,3.725-.025Zm0-3.373a5.231,5.231,0,0,0-3.725.021V57.291a4.237,4.237,0,0,1,3.725-.025Zm0-3.373a5.23,5.23,0,0,0-3.725.021V53.919a4.244,4.244,0,0,1,3.725-.025Zm0-3.372a5.228,5.228,0,0,0-3.725.021V50.546a4.241,4.241,0,0,1,3.725-.025Zm0-3.373a5.231,5.231,0,0,0-3.725.021V47.174a4.237,4.237,0,0,1,3.725-.025Zm0-3.373a5.23,5.23,0,0,0-3.725.021V43.8a4.247,4.247,0,0,1,3.725-.025Zm0-3.373a5.231,5.231,0,0,0-3.725.021V40.428a4.241,4.241,0,0,1,3.725-.025Zm0-3.372a5.231,5.231,0,0,0-3.725.021V37.056a4.237,4.237,0,0,1,3.725-.025Zm0-3.373a5.23,5.23,0,0,0-3.725.021V33.683a4.247,4.247,0,0,1,3.725-.025Zm0-3.373a5.231,5.231,0,0,0-3.725.021V30.31a4.241,4.241,0,0,1,3.725-.025Zm0-3.372a5.231,5.231,0,0,0-3.725.021V26.938a4.237,4.237,0,0,1,3.725-.025Zm0-3.373a5.23,5.23,0,0,0-3.725.021V23.565a4.247,4.247,0,0,1,3.725-.025Zm0-3.373a5.231,5.231,0,0,0-3.725.021V20.192a4.241,4.241,0,0,1,3.725-.025ZM75.26,10.23h7.29v5.813H75.26Zm-4.28,108.109v-1.192h4.433C73.963,117.612,72.486,118.014,70.979,118.339Zm5.216-2.093H70.979v-2.7H76.2Zm0-3.6H70.979v-2.7H76.2Zm0-3.6H70.979v-5.217H76.2Zm0-6.118H70.979v-1.7A6.631,6.631,0,0,1,76.2,101.2Zm0-2.713a7.647,7.647,0,0,0-5.216.033V97.859a6.631,6.631,0,0,1,5.216-.036Zm0-3.372a7.646,7.646,0,0,0-5.216.033V94.486A6.636,6.636,0,0,1,76.2,94.45Zm0-3.373a7.642,7.642,0,0,0-5.216.033V91.114a6.631,6.631,0,0,1,5.216-.036Zm0-3.373a7.647,7.647,0,0,0-5.216.033V87.741A6.631,6.631,0,0,1,76.2,87.7Zm0-3.372a7.647,7.647,0,0,0-5.216.033V84.369a6.631,6.631,0,0,1,5.216-.037Zm0-3.373a7.636,7.636,0,0,0-5.216.033V81a6.63,6.63,0,0,1,5.216-.036Zm0-3.373a7.646,7.646,0,0,0-5.216.033V77.623a6.631,6.631,0,0,1,5.216-.036Zm0-3.372a7.646,7.646,0,0,0-5.216.032V74.251a6.626,6.626,0,0,1,5.216-.037Zm0-3.373a7.641,7.641,0,0,0-5.216.033v-2.4a6.63,6.63,0,0,1,5.216-.036Zm0-3.372a7.646,7.646,0,0,0-5.216.033V67.505a6.631,6.631,0,0,1,5.216-.036Zm0-3.372a7.647,7.647,0,0,0-5.216.033V64.133A6.626,6.626,0,0,1,76.2,64.1Zm0-3.373a7.641,7.641,0,0,0-5.216.033v-2.4a6.631,6.631,0,0,1,5.216-.036Zm0-3.372a7.646,7.646,0,0,0-5.216.033V57.388a6.631,6.631,0,0,1,5.216-.036Zm0-3.372a7.646,7.646,0,0,0-5.216.032V54.015a6.625,6.625,0,0,1,5.216-.037ZM76.2,53a7.641,7.641,0,0,0-5.216.033v-2.4a6.631,6.631,0,0,1,5.216-.036Zm0-3.372a7.649,7.649,0,0,0-5.216.033V47.27a6.631,6.631,0,0,1,5.216-.036Zm0-3.372a7.647,7.647,0,0,0-5.216.033V43.9a6.631,6.631,0,0,1,5.216-.036Zm0-3.373a7.649,7.649,0,0,0-5.216.033V40.524a6.631,6.631,0,0,1,5.216-.036Zm0-3.372a7.646,7.646,0,0,0-5.216.033V37.152a6.633,6.633,0,0,1,5.216-.036Zm0-3.372a7.646,7.646,0,0,0-5.216.032V33.779a6.631,6.631,0,0,1,5.216-.036Zm0-3.373a7.646,7.646,0,0,0-5.216.033V30.407A6.63,6.63,0,0,1,76.2,30.37Zm0-3.372a7.645,7.645,0,0,0-5.216.033V27.034A6.631,6.631,0,0,1,76.2,27Zm0-3.373a7.647,7.647,0,0,0-5.216.033v-2.4a6.63,6.63,0,0,1,5.216-.036Zm0-3.373a7.646,7.646,0,0,0-5.216.033V20.289a6.63,6.63,0,0,1,5.216-.036Zm6.648,91.383a47.038,47.038,0,0,1-4.887,2.213H77.1v-2.7h5.747Zm0-1.384H77.1v-2.7h5.747Zm0-3.6H77.1v-5.217h5.747Zm0-6.118H77.1v-1.749a8.338,8.338,0,0,1,5.747.013Zm0-2.7a9.364,9.364,0,0,0-5.747-.012V97.812a8.34,8.34,0,0,1,5.747.013Zm0-3.372a9.356,9.356,0,0,0-5.747-.013V94.44a8.339,8.339,0,0,1,5.747.013Zm0-3.373a9.356,9.356,0,0,0-5.747-.013V91.067a8.339,8.339,0,0,1,5.747.013Zm0-3.373a9.367,9.367,0,0,0-5.747-.012V87.694a8.34,8.34,0,0,1,5.747.013Zm0-3.372a9.356,9.356,0,0,0-5.747-.013V84.322a8.326,8.326,0,0,1,5.747.013Zm0-3.373a9.349,9.349,0,0,0-5.747-.013V80.949a8.339,8.339,0,0,1,5.747.013Zm0-3.373a9.367,9.367,0,0,0-5.747-.012V77.577a8.34,8.34,0,0,1,5.747.013Zm0-3.372a9.356,9.356,0,0,0-5.747-.013V74.2a8.338,8.338,0,0,1,5.747.013Zm0-3.373a9.367,9.367,0,0,0-5.747-.012V70.831a8.338,8.338,0,0,1,5.747.013Zm0-3.372a9.367,9.367,0,0,0-5.747-.012V67.459a8.34,8.34,0,0,1,5.747.013Zm0-3.373A9.356,9.356,0,0,0,77.1,66.5V64.086a8.338,8.338,0,0,1,5.747.013Zm0-3.373a9.367,9.367,0,0,0-5.747-.012V60.714a8.338,8.338,0,0,1,5.747.013Zm0-3.372a9.367,9.367,0,0,0-5.747-.012V57.341a8.336,8.336,0,0,1,5.747.014Zm0-3.373A9.356,9.356,0,0,0,77.1,56.38V53.968a8.339,8.339,0,0,1,5.747.013Zm0-3.373a9.367,9.367,0,0,0-5.747-.012V50.6a8.338,8.338,0,0,1,5.747.013Zm0-3.372a9.367,9.367,0,0,0-5.747-.012V47.223a8.34,8.34,0,0,1,5.747.013Zm0-3.373a9.356,9.356,0,0,0-5.747-.013V43.85a8.338,8.338,0,0,1,5.747.013Zm0-3.373A9.364,9.364,0,0,0,77.1,42.89V40.478a8.338,8.338,0,0,1,5.747.013Zm0-3.372a9.367,9.367,0,0,0-5.747-.012V37.105a8.34,8.34,0,0,1,5.747.013Zm0-3.372a9.356,9.356,0,0,0-5.747-.013V33.733a8.338,8.338,0,0,1,5.747.013Zm0-3.373a9.367,9.367,0,0,0-5.747-.012V30.36a8.34,8.34,0,0,1,5.747.013Zm0-3.372A9.357,9.357,0,0,0,77.1,29.4V26.988A8.34,8.34,0,0,1,82.843,27Zm0-3.372a9.36,9.36,0,0,0-5.747-.013V23.615a8.338,8.338,0,0,1,5.747.013Zm0-3.373a9.367,9.367,0,0,0-5.747-.012V20.242a8.34,8.34,0,0,1,5.747.013Zm.9,90.887v0h.008Zm5.055-3.217q-1.689,1.232-3.489,2.312H83.744v-2.7H88.8Zm0-1.285H83.744v-5.217H88.8Zm0-6.118H83.744v-1.752a6.779,6.779,0,0,1,5.055-.015Zm0-2.738a7.8,7.8,0,0,0-5.055.013v-2.4a6.779,6.779,0,0,1,5.055-.015Zm0-3.373a7.8,7.8,0,0,0-5.055.014v-2.4a6.784,6.784,0,0,1,5.055-.015Zm0-3.372a7.811,7.811,0,0,0-5.055.014v-2.4a6.779,6.779,0,0,1,5.055-.015Zm0-3.372a7.8,7.8,0,0,0-5.055.013v-2.4a6.779,6.779,0,0,1,5.055-.015Zm0-3.373a7.8,7.8,0,0,0-5.055.014v-2.4A6.779,6.779,0,0,1,88.8,84.3Zm0-3.372a7.8,7.8,0,0,0-5.055.014v-2.4a6.779,6.779,0,0,1,5.055-.015Zm0-3.372a7.8,7.8,0,0,0-5.055.013v-2.4a6.779,6.779,0,0,1,5.055-.015Zm0-3.373a7.8,7.8,0,0,0-5.055.014V74.2a6.779,6.779,0,0,1,5.055-.015Zm0-3.372a7.8,7.8,0,0,0-5.055.013v-2.4a6.779,6.779,0,0,1,5.055-.015Zm0-3.373a7.8,7.8,0,0,0-5.055.014v-2.4A6.779,6.779,0,0,1,88.8,67.44Zm0-3.372a7.8,7.8,0,0,0-5.055.014v-2.4a6.779,6.779,0,0,1,5.055-.015Zm0-3.372a7.8,7.8,0,0,0-5.055.013v-2.4a6.779,6.779,0,0,1,5.055-.015Zm0-3.373a7.8,7.8,0,0,0-5.055.014v-2.4a6.779,6.779,0,0,1,5.055-.015Zm0-3.372a7.8,7.8,0,0,0-5.055.014v-2.4A6.779,6.779,0,0,1,88.8,53.95Zm0-3.372a7.8,7.8,0,0,0-5.055.013v-2.4a6.779,6.779,0,0,1,5.055-.015Zm0-3.373a7.8,7.8,0,0,0-5.055.014v-2.4A6.779,6.779,0,0,1,88.8,47.2Zm0-3.372a7.8,7.8,0,0,0-5.055.014v-2.4a6.779,6.779,0,0,1,5.055-.015Zm0-3.372a7.8,7.8,0,0,0-5.055.013v-2.4a6.779,6.779,0,0,1,5.055-.015Zm0-3.373a7.8,7.8,0,0,0-5.055.014V37.1a6.779,6.779,0,0,1,5.055-.016Zm0-3.373a7.8,7.8,0,0,0-5.055.014v-2.4a6.779,6.779,0,0,1,5.055-.015Zm0-3.372a7.8,7.8,0,0,0-5.055.013v-2.4a6.779,6.779,0,0,1,5.055-.015Zm0-3.373a7.8,7.8,0,0,0-5.055.014v-2.4a6.779,6.779,0,0,1,5.055-.016ZM88.8,26a7.8,7.8,0,0,0-5.055.014v-2.4A6.779,6.779,0,0,1,88.8,23.6Zm0-3.372a7.8,7.8,0,0,0-5.055.013v-2.4a6.779,6.779,0,0,1,5.055-.015Zm0-3.373a7.72,7.72,0,0,0-5.521.195,9.206,9.206,0,0,0-6.649,0,7.585,7.585,0,0,0-5.649-.137V16.944H88.8Zm4.814,87.054q-1.506,1.438-3.132,2.745H89.7v-5.217h3.913Zm0-3.373H89.7v-1.748a4.22,4.22,0,0,1,3.913-.025Zm0-2.775a5.2,5.2,0,0,0-3.913.022V97.812a4.223,4.223,0,0,1,3.913-.025Zm0-3.372a5.2,5.2,0,0,0-3.913.022V94.44a4.22,4.22,0,0,1,3.913-.025Zm0-3.373a5.194,5.194,0,0,0-3.913.022V91.067a4.22,4.22,0,0,1,3.913-.025Zm0-3.373a5.2,5.2,0,0,0-3.913.022V87.695a4.223,4.223,0,0,1,3.913-.025Zm0-3.372a5.2,5.2,0,0,0-3.913.022V84.322a4.22,4.22,0,0,1,3.913-.025Zm0-3.373a5.2,5.2,0,0,0-3.913.022V80.95a4.22,4.22,0,0,1,3.913-.025Zm0-3.372a5.194,5.194,0,0,0-3.913.022V77.577a4.22,4.22,0,0,1,3.913-.025Zm0-3.373a5.2,5.2,0,0,0-3.913.022V74.2a4.22,4.22,0,0,1,3.913-.025Zm0-3.372A5.2,5.2,0,0,0,89.7,73.2V70.831a4.223,4.223,0,0,1,3.913-.024Zm0-3.372a5.2,5.2,0,0,0-3.913.022V67.459a4.22,4.22,0,0,1,3.913-.025Zm0-3.373a5.194,5.194,0,0,0-3.913.022V64.086a4.22,4.22,0,0,1,3.913-.025Zm0-3.373a5.2,5.2,0,0,0-3.913.022V60.713a4.225,4.225,0,0,1,3.913-.024Zm0-3.372a5.2,5.2,0,0,0-3.913.022V57.341a4.22,4.22,0,0,1,3.913-.025Zm0-3.373a5.2,5.2,0,0,0-3.913.022V53.969a4.22,4.22,0,0,1,3.913-.025Zm0-3.372a5.194,5.194,0,0,0-3.913.022V50.6a4.221,4.221,0,0,1,3.913-.024Zm0-3.373a5.19,5.19,0,0,0-3.913.022V47.223a4.22,4.22,0,0,1,3.913-.025Zm0-3.373a5.2,5.2,0,0,0-3.913.022V43.851a4.22,4.22,0,0,1,3.913-.025Zm0-3.372a5.2,5.2,0,0,0-3.913.022V40.478a4.221,4.221,0,0,1,3.913-.024Zm0-3.372a5.19,5.19,0,0,0-3.913.022V37.105a4.22,4.22,0,0,1,3.913-.025Zm0-3.373A5.2,5.2,0,0,0,89.7,36.1V33.733a4.219,4.219,0,0,1,3.913-.025Zm0-3.372a5.2,5.2,0,0,0-3.913.022V30.36a4.221,4.221,0,0,1,3.913-.025Zm0-3.372a5.2,5.2,0,0,0-3.913.022V26.988a4.22,4.22,0,0,1,3.913-.025Zm0-3.373a5.194,5.194,0,0,0-3.913.022V23.615a4.22,4.22,0,0,1,3.913-.025Zm0-3.373a5.2,5.2,0,0,0-3.913.022V20.242a4.221,4.221,0,0,1,3.913-.025Zm.9,82.836v-4.245a4.024,4.024,0,0,1,1.968-.507h.45v-.9h-.45a4.993,4.993,0,0,0-1.968.4V97.806a4.027,4.027,0,0,1,1.968-.507h.45v-.9h-.45a4.99,4.99,0,0,0-1.968.4V94.434a4.024,4.024,0,0,1,1.968-.507h.45v-.9h-.45a4.993,4.993,0,0,0-1.968.4V91.061a4.024,4.024,0,0,1,1.968-.507h.45v-.9h-.45a4.993,4.993,0,0,0-1.968.4V87.688a4.027,4.027,0,0,1,1.968-.507h.45v-.9h-.45a4.99,4.99,0,0,0-1.968.4V84.316a4.024,4.024,0,0,1,1.968-.507h.45v-.9h-.45a4.992,4.992,0,0,0-1.968.4V80.943a4.024,4.024,0,0,1,1.968-.507h.45v-.9h-.45a4.993,4.993,0,0,0-1.968.4V77.57a4.025,4.025,0,0,1,1.968-.507h.45v-.9h-.45a4.992,4.992,0,0,0-1.968.4V74.2a4.024,4.024,0,0,1,1.968-.507h.45v-.9h-.45a4.993,4.993,0,0,0-1.968.4V70.826a4.024,4.024,0,0,1,1.968-.507h.45v-.9h-.45a4.992,4.992,0,0,0-1.968.4V67.453a4.025,4.025,0,0,1,1.968-.507h.45v-.9h-.45a4.992,4.992,0,0,0-1.968.4V64.08a4.024,4.024,0,0,1,1.968-.507h.45v-.9h-.45a4.993,4.993,0,0,0-1.968.4V60.708a4.024,4.024,0,0,1,1.968-.507h.45v-.9h-.45a4.993,4.993,0,0,0-1.968.4V57.335a4.024,4.024,0,0,1,1.968-.507h.45v-.9h-.45a4.992,4.992,0,0,0-1.968.4V53.962a4.024,4.024,0,0,1,1.968-.507h.45v-.9h-.45a4.992,4.992,0,0,0-1.968.4V50.59a4.024,4.024,0,0,1,1.968-.507h.45v-.9h-.45a4.993,4.993,0,0,0-1.968.4V47.217a4.024,4.024,0,0,1,1.968-.507h.45v-.9h-.45a4.993,4.993,0,0,0-1.968.4V43.845a4.024,4.024,0,0,1,1.968-.507h.45v-.9h-.45a4.992,4.992,0,0,0-1.968.4V40.472a3.918,3.918,0,0,1,1.257-.413l.269.317.005-.009a47.169,47.169,0,0,1,12.241,31.744c0,.2-.009.4-.015.607a5.342,5.342,0,0,0-6.016,3.606,3.715,3.715,0,1,0-.908,7.317h5.5a47.3,47.3,0,0,1-12.332,21.783ZM113.159,82.74H101.346a2.814,2.814,0,1,1,0-5.628,2.78,2.78,0,0,1,1.045.2l.486.2L103,77a4.5,4.5,0,0,1,8.493-.791l.171.382.393-.142a3.242,3.242,0,1,1,1.1,6.291Z" fill="#050001" stroke="#050001" stroke-width="1"/></g></svg>