<svg xmlns="http://www.w3.org/2000/svg" width="119.767" height="24.88" viewBox="0 0 119.767 24.88">
  <g id="Group_19030" data-name="Group 19030" transform="translate(-1251.039 -509.274)">
    <g id="Group_19025" data-name="Group 19025" transform="translate(1251.039 526.872)">
      <path id="Path_15333" data-name="Path 15333" d="M12.443-17.6l3.376,9.5h9.065l-7.4,5.582,2.645,9.795-7.69-5.873L4.755,7.282,7.4-2.513,0-8.095H9.065Z" fill="#0064fa"/>
    </g>
    <g id="Group_19026" data-name="Group 19026" transform="translate(1275.922 526.872)">
      <path id="Path_15333-2" data-name="Path 15333" d="M12.443-17.6l3.376,9.5h9.065l-7.4,5.582,2.645,9.795-7.69-5.873L4.755,7.282,7.4-2.513,0-8.095H9.065Z" fill="#0064fa"/>
    </g>
    <g id="Group_19027" data-name="Group 19027" transform="translate(1298.922 526.872)">
      <path id="Path_15333-3" data-name="Path 15333" d="M12.443-17.6l3.376,9.5h9.065l-7.4,5.582,2.645,9.795-7.69-5.873L4.755,7.282,7.4-2.513,0-8.095H9.065Z" fill="#0064fa"/>
    </g>
    <g id="Group_19028" data-name="Group 19028" transform="translate(1322.922 526.872)">
      <path id="Path_15333-4" data-name="Path 15333" d="M12.443-17.6l3.376,9.5h9.065l-7.4,5.582,2.645,9.795-7.69-5.873L4.755,7.282,7.4-2.513,0-8.095H9.065Z" fill="#0064fa"/>
    </g>
    <g id="Group_19029" data-name="Group 19029" transform="translate(1345.922 526.872)">
      <path id="Path_15333-5" data-name="Path 15333" d="M12.443-17.6l3.376,9.5h9.065l-7.4,5.582,2.645,9.795-7.69-5.873L4.755,7.282,7.4-2.513,0-8.095H9.065Z" fill="#0064fa"/>
    </g>
  </g>
</svg>
