<svg id="Group_18559" data-name="Group 18559" xmlns="http://www.w3.org/2000/svg" width="18.135" height="18.135" viewBox="0 0 18.135 18.135">
  <path id="Path_15204" data-name="Path 15204" d="M0,13.815H4.03V.717H0Zm10.075,0H6.045V5.195c0-1.557-.051-2.857-.1-3.981H9.563L9.742,2.95h.076A4.476,4.476,0,0,1,13.669.935c2.551,0,4.465,1.708,4.465,5.382v7.5H14.1V6.9c0-1.606-.612-2.831-2.015-2.831A2.11,2.11,0,0,0,10.2,5.652a2.779,2.779,0,0,0-.128.97ZM4.03-2.305A1.909,1.909,0,0,1,2.014-.314,1.91,1.91,0,0,1,0-2.253,1.983,1.983,0,0,1,2.015-4.32,1.955,1.955,0,0,1,4.03-2.305Z" transform="translate(0 4.32)" fill="#06f" fill-rule="evenodd"/>
</svg>
