<svg xmlns="http://www.w3.org/2000/svg" xmlns:xlink="http://www.w3.org/1999/xlink" width="181.74" height="39.672" viewBox="0 0 181.74 39.672">
  <defs>
    <clipPath id="clip-path">
      <path id="Path_78" data-name="Path 78" d="M41.229,40.87V1.2H33.435L21.269,13.371,9.079,1.2H1.3V40.87H11.56V21.462l9.709,9.7,9.7-9.7V40.87Z" transform="translate(-1.3 -1.2)"/>
    </clipPath>
  </defs>
  <g id="Group_16531" data-name="Group 16531" transform="translate(-248.441 -20.546)">
    <g id="Group_16505" data-name="Group 16505" transform="translate(80.681)">
      <path id="Path_75" data-name="Path 75" d="M12.063-7.367a3.289,3.289,0,0,0-2.9,1.318A2.972,2.972,0,0,0,6.546-7.367a3.065,3.065,0,0,0-2.676,1.2v-.919H.88V2.9h3V-2.734c0-1.178.559-1.872,1.558-1.872.963,0,1.438.639,1.438,1.637V2.9h3V-2.734c0-1.178.559-1.872,1.558-1.872.959,0,1.438.639,1.438,1.637V2.9h3v-6.13a3.735,3.735,0,0,0-.962-2.925A3.735,3.735,0,0,0,12.063-7.367Zm11.921-3.714H18.393V2.9h5.591A6.768,6.768,0,0,0,28.864.845a6.768,6.768,0,0,0,1.91-4.937,6.768,6.768,0,0,0-1.91-4.937,6.768,6.768,0,0,0-4.88-2.052Zm0,10.9h-2.4V-8.006h2.4a3.6,3.6,0,0,1,2.74,1.119A3.6,3.6,0,0,1,27.7-4.092,3.6,3.6,0,0,1,26.724-1.3,3.6,3.6,0,0,1,23.984-.178ZM35.526-.9h7.089a5.8,5.8,0,0,0,.125-1.2,5.041,5.041,0,0,0-1.4-3.726,5.041,5.041,0,0,0-3.669-1.546,5.117,5.117,0,0,0-3.8,1.481,5.117,5.117,0,0,0-1.51,3.79,5.157,5.157,0,0,0,1.6,3.86,5.157,5.157,0,0,0,3.931,1.412A5.067,5.067,0,0,0,42.236,1.12l-2.4-1.373a2.607,2.607,0,0,1-1.917.759,2.273,2.273,0,0,1-2.4-1.4Zm-.06-2.237a2.062,2.062,0,0,1,2.177-1.583,2.056,2.056,0,0,1,2.122,1.578ZM50.782-7.087,48.706-.757l-2.077-6.33H43.314L47.008,2.9H50.4L54.1-7.087ZM57.851-.9H64.94a5.806,5.806,0,0,0,.115-1.2,5.041,5.041,0,0,0-1.4-3.724,5.041,5.041,0,0,0-3.666-1.548,5.117,5.117,0,0,0-3.8,1.481,5.117,5.117,0,0,0-1.51,3.79,5.157,5.157,0,0,0,1.6,3.862,5.157,5.157,0,0,0,3.934,1.41A5.067,5.067,0,0,0,64.556,1.12L62.16-.253a2.607,2.607,0,0,1-1.917.759A2.273,2.273,0,0,1,57.851-.9Zm-.06-2.237a2.062,2.062,0,0,1,2.177-1.583A2.056,2.056,0,0,1,62.09-3.138ZM67.137,2.9h3V-11.68h-3Zm10.359.28a5.233,5.233,0,0,0,3.755-1.524,5.233,5.233,0,0,0,1.541-3.748,5.233,5.233,0,0,0-1.54-3.746A5.233,5.233,0,0,0,77.5-7.367a5.233,5.233,0,0,0-3.752,1.525,5.233,5.233,0,0,0-1.54,3.746,5.233,5.233,0,0,0,1.54,3.746A5.233,5.233,0,0,0,77.5,3.177Zm0-2.915a2.239,2.239,0,0,1-1.661-.677A2.239,2.239,0,0,1,75.2-2.095a2.239,2.239,0,0,1,.632-1.681A2.239,2.239,0,0,1,77.5-4.451a2.239,2.239,0,0,1,1.664.675A2.239,2.239,0,0,1,79.8-2.095a2.239,2.239,0,0,1-.632,1.681A2.239,2.239,0,0,1,77.5.261ZM90.84-7.367a3.75,3.75,0,0,0-2.975,1.218v-.939h-3V6.891h3V1.959A3.75,3.75,0,0,0,90.84,3.177a5.013,5.013,0,0,0,3.483-1.643,5.013,5.013,0,0,0,1.29-3.628,5.013,5.013,0,0,0-1.29-3.628A5.013,5.013,0,0,0,90.84-7.367Zm-.6,7.708a2.28,2.28,0,0,1-1.734-.686,2.28,2.28,0,0,1-.642-1.75,2.28,2.28,0,0,1,.641-1.748,2.28,2.28,0,0,1,1.731-.688,2.28,2.28,0,0,1,1.737.684,2.28,2.28,0,0,1,.644,1.752,2.28,2.28,0,0,1-.642,1.75,2.28,2.28,0,0,1-1.734.686ZM100.365-.9h7.089a5.805,5.805,0,0,0,.125-1.2,5.041,5.041,0,0,0-1.406-3.73A5.041,5.041,0,0,0,102.5-7.367a5.117,5.117,0,0,0-3.8,1.483A5.117,5.117,0,0,0,97.19-2.095a5.157,5.157,0,0,0,1.6,3.862,5.157,5.157,0,0,0,3.934,1.41,5.067,5.067,0,0,0,4.353-2.057l-2.4-1.373a2.607,2.607,0,0,1-1.917.759,2.273,2.273,0,0,1-2.4-1.4Zm-.06-2.237a2.062,2.062,0,0,1,2.177-1.583A2.056,2.056,0,0,1,104.6-3.138ZM112.646-5.31V-7.087h-3V2.9h3V-1.616a2.361,2.361,0,0,1,.933-1.882,2.361,2.361,0,0,1,2.063-.395V-7.287a3,3,0,0,0-3,1.977Zm7.309,1.138c0-.359.32-.559.839-.559a1.45,1.45,0,0,1,1.338.874l2.556-1.373a4.368,4.368,0,0,0-3.894-2.137c-2.077,0-3.914,1.1-3.914,3.275,0,3.455,4.912,2.871,4.912,3.974,0,.4-.359.624-1.078.624a1.64,1.64,0,0,1-1.7-1.178L116.42.8a4.368,4.368,0,0,0,4.3,2.376c2.157,0,4.154-.978,4.154-3.275-.005-3.694-4.917-2.935-4.917-4.074Z" transform="translate(224.628 46.101)" fill="#231f20"/>
      <path id="Path_76" data-name="Path 76" d="M41.229,40.87V1.2H33.435L21.269,13.371,9.079,1.2H1.3V40.87H11.56V21.462l9.709,9.7,9.7-9.7V40.87Z" transform="translate(166.46 19.346)" fill="#231f20" fill-rule="evenodd"/>
      <g id="Group_165" data-name="Group 165" transform="translate(167.76 20.546)">
        <g id="Group_164" data-name="Group 164" clip-path="url(#clip-path)">
          <path id="Path_77" data-name="Path 77" d="M1.3,1.2V41.67H11.56V21.462l9.709,9.7v-17.8L9.079,1.2Z" transform="translate(-1.3 -1.2)" fill="#404041" fill-rule="evenodd"/>
        </g>
      </g>
      <path id="Path_79" data-name="Path 79" d="M77,150.7l9.7,9.7h0l-9.7,9.7v-9.7h0Z" transform="translate(101.021 -109.892)" fill="#bcbdc0" fill-rule="evenodd"/>
      <path id="Path_80" data-name="Path 80" d="M158.3,150.7l-9.7,9.7h0l9.7,9.7v-9.7h0Z" transform="translate(39.125 -109.892)" fill="#d1d3d4" fill-rule="evenodd"/>
    </g>
    <path id="Path_81" data-name="Path 81" d="M96.409,232l-9.7-9.7h0L77,232Z" transform="translate(181.701 -171.787)" fill="#e6e7e8" fill-rule="evenodd"/>
  </g>
</svg>
