<svg xmlns="http://www.w3.org/2000/svg" xmlns:xlink="http://www.w3.org/1999/xlink" width="472.881" height="439.663" viewBox="0 0 472.881 439.663">
  <defs>
    <filter id="path1326" x="227.611" y="96.284" width="206.146" height="206.779" filterUnits="userSpaceOnUse">
      <feOffset dy="3" input="SourceAlpha"/>
      <feGaussianBlur stdDeviation="3" result="blur"/>
      <feFlood flood-opacity="0.161"/>
      <feComposite operator="in" in2="blur"/>
      <feComposite in="SourceGraphic"/>
    </filter>
    <filter id="Path_15242" x="238.012" y="53.328" width="29.744" height="31.444" filterUnits="userSpaceOnUse">
      <feOffset dy="3" input="SourceAlpha"/>
      <feGaussianBlur stdDeviation="3" result="blur-2"/>
      <feFlood flood-opacity="0.161"/>
      <feComposite operator="in" in2="blur-2"/>
      <feComposite in="SourceGraphic"/>
    </filter>
    <filter id="Path_15243" x="237.769" y="65.707" width="19.596" height="19.733" filterUnits="userSpaceOnUse">
      <feOffset dy="3" input="SourceAlpha"/>
      <feGaussianBlur stdDeviation="3" result="blur-3"/>
      <feFlood flood-opacity="0.161"/>
      <feComposite operator="in" in2="blur-3"/>
      <feComposite in="SourceGraphic"/>
    </filter>
    <filter id="Ellipse_467" x="313.27" y="173.644" width="36.509" height="36.509" filterUnits="userSpaceOnUse">
      <feOffset dy="3" input="SourceAlpha"/>
      <feGaussianBlur stdDeviation="3" result="blur-4"/>
      <feFlood flood-opacity="0.161"/>
      <feComposite operator="in" in2="blur-4"/>
      <feComposite in="SourceGraphic"/>
    </filter>
    <filter id="Ellipse_468" x="223.842" y="304.196" width="31.989" height="31.989" filterUnits="userSpaceOnUse">
      <feOffset dy="3" input="SourceAlpha"/>
      <feGaussianBlur stdDeviation="3" result="blur-5"/>
      <feFlood flood-opacity="0.161"/>
      <feComposite operator="in" in2="blur-5"/>
      <feComposite in="SourceGraphic"/>
    </filter>
    <filter id="Ellipse_469" x="310.004" y="170.377" width="44.13" height="44.13" filterUnits="userSpaceOnUse">
      <feOffset dy="3" input="SourceAlpha"/>
      <feGaussianBlur stdDeviation="3" result="blur-6"/>
      <feFlood flood-opacity="0.161"/>
      <feComposite operator="in" in2="blur-6"/>
      <feComposite in="SourceGraphic"/>
    </filter>
    <filter id="Ellipse_470" x="220.963" y="301.315" width="37.749" height="37.75" filterUnits="userSpaceOnUse">
      <feOffset dy="3" input="SourceAlpha"/>
      <feGaussianBlur stdDeviation="3" result="blur-7"/>
      <feFlood flood-opacity="0.161"/>
      <feComposite operator="in" in2="blur-7"/>
      <feComposite in="SourceGraphic"/>
    </filter>
    <filter id="Ellipse_471" x="305.648" y="166.023" width="51.751" height="51.751" filterUnits="userSpaceOnUse">
      <feOffset dy="3" input="SourceAlpha"/>
      <feGaussianBlur stdDeviation="3" result="blur-8"/>
      <feFlood flood-opacity="0.161"/>
      <feComposite operator="in" in2="blur-8"/>
      <feComposite in="SourceGraphic"/>
    </filter>
    <filter id="Ellipse_472" x="218.083" y="298.436" width="43.51" height="43.51" filterUnits="userSpaceOnUse">
      <feOffset dy="3" input="SourceAlpha"/>
      <feGaussianBlur stdDeviation="3" result="blur-9"/>
      <feFlood flood-opacity="0.161"/>
      <feComposite operator="in" in2="blur-9"/>
      <feComposite in="SourceGraphic"/>
    </filter>
  </defs>
  <g id="Group_19144" data-name="Group 19144" transform="translate(-345 -3754.681)">
    <g id="POL_location_map" transform="translate(345 3754.681)">
      <path id="path1364" d="M424.794,451.132c-3.786-1.309-8.011-2.7-9.387-3.1a26.293,26.293,0,0,1-5.632-2.734,37.688,37.688,0,0,0-7.763-3.437c-2.658-.814-4.969-2.419-5.422-3.767-1.3-3.875-9.152-10.5-12.439-10.5-1.657,0-3.39-.576-3.852-1.282-.482-.736-3.578-1.127-7.27-.918-3.537.2-7.308-.152-8.38-.786-2.2-1.3-6.629-12.208-8.744-21.541-.9-3.954-2.28-6.655-3.805-7.425-2.862-1.446-3.137-4.15-.519-5.1a2.835,2.835,0,0,0,1.877-2.345,4.872,4.872,0,0,0-1.877-3.135c-1.254-.982-1.878-3.635-1.878-7.982a44.458,44.458,0,0,0-1.414-10.966c-1.3-4.089-1.115-4.875,2.213-9.553,1.994-2.8,6.884-7.253,10.865-9.889s8.478-6.687,9.99-9c8.971-13.735,10.239-15.147,13.628-15.185,1.851-.02,3.716-.569,4.141-1.218a4.3,4.3,0,0,1,3.2-1.181c2.056,0,2.43.843,2.43,5.481,0,6.3,2.188,8.6,8.254,8.658,3.346.032,8.016,2.965,8.016,5.035,0,.372-1.971,1.774-4.38,3.116-3.614,2.013-4.381,3.129-4.381,6.379,0,5.2,1.914,6.774,8.232,6.774a31.738,31.738,0,0,1,9.722,1.772,39.469,39.469,0,0,0,11.745,1.772c6.227,0,7.427-.363,8.488-2.562,2.717-5.634,8.333-5.777,14.771-.376l3.523,2.957-5.59,6.94a107.1,107.1,0,0,0-7.153,9.737,13.682,13.682,0,0,1-2.446,3.388c-1.331.89-11.257,16.623-11.257,17.842a1.057,1.057,0,0,1-1.047,1.061c-.575,0-2.95,3.43-5.274,7.623l-4.228,7.624L424,419.2a22.3,22.3,0,0,1,1.388,12.364c-.991,7.488,1.576,13.121,6.513,14.291,2.227.528,2.906,1.51,2.906,4.21C434.806,454.222,433.985,454.31,424.794,451.132Z" transform="translate(-14.335 -13.703)" fill="#d6e6ff"/>
      <path id="path1340" d="M289.051,443.489c-2.258-2.355-3.311-2.413-8.695-.481-2.058.739-2.225.615-.938-.693.86-.875,1.564-4.144,1.564-7.262,0-5.666,0-5.672-4.27-5.672-5.2,0-10.749-5.469-10.749-10.6,0-1.868-.823-3.626-1.877-4.008a3.245,3.245,0,0,1-1.877-2.9c0-5.462-2.695-9.48-7.6-11.332-4.527-1.71-4.919-2.219-4.919-6.388,0-3.285-.846-5.28-3.081-7.261l-3.081-2.732,2.768-3.391c1.522-1.866,4.879-5.557,7.461-8.2,4.95-5.075,5.962-8.633,2.783-9.784-3.439-1.247,7.02-9.012,12.138-9.012,5.321,0,10.833-2.313,11.726-4.919.508-1.48,2.536-2.062,8.23-2.362,10.177-.536,11.117.139,11.117,7.973,0,6.109,2.168,11.435,5.6,13.763,2.152,1.459,10.711,1,14.228-.76,3.32-1.663,19.3-6.606,21.358-6.606,1.5,0,2.867,7.343,3.1,16.683.113,4.581.894,8.619,1.886,9.747,1.11,1.262,1.209,1.925.287,1.925-2.518,0-1.653,8.061,1.009,9.406,1.594.806,2.913,3.492,3.885,7.91a72.941,72.941,0,0,0,3.876,11.985c1.322,2.913,2.1,5.581,1.731,5.93s-4.326.539-8.792.423c-7.747-.2-8.119-.084-8.119,2.56,0,6.034-8.318,8.923-11.177,3.881-1.464-2.581-2.4-2.811-11.97-2.934-9.751-.125-10.508.046-12.42,2.8-1.12,1.614-3.026,2.934-4.235,2.934-1.378,0-3.4,2.208-5.406,5.91C291.4,445.914,291.382,445.922,289.051,443.489Z" transform="translate(-11.945 -14.307)" fill="#d6e6ff"/>
      <path id="path1338" d="M238.462,427.225c0-.6-2.225-3.073-4.946-5.505-4.117-3.683-5.008-5.312-5.319-9.725-.232-3.29-1.086-5.611-2.25-6.118-9.693-4.215-9.386-3.864-9.386-10.711,0-6.277-.093-6.445-3.755-6.823-2.065-.212-4.29-.876-4.944-1.476a7.378,7.378,0,0,0-4.127-1.09c-3.542,0-14.209-10.13-13.222-12.557.362-.891,1.955-1.621,3.538-1.621s5.794-1.427,9.355-3.171c5.785-2.833,6.395-3.494,5.722-6.2-2.142-8.628-2.187-11.421-.207-12.972a5.1,5.1,0,0,0,2.007-3.169c0-.878,1.69-2.422,3.755-3.43s3.755-2.155,3.755-2.549c0-1.218-5.463-9.241-6.594-9.683-.587-.23-.165-1.36.939-2.511s2.345-4.153,2.757-6.671,1.86-5.585,3.218-6.816c1.958-1.776,2.34-3.307,1.849-7.418-.712-5.973.966-7.474,8.359-7.474,3.358,0,4.935.722,6.5,2.979,1.8,2.6,2.885,2.953,8.512,2.78,7.618-.235,11.632,1.764,12.693,6.317.614,2.641,1.452,3.283,4.284,3.283,1.976,0,3.838.778,4.242,1.771a2.988,2.988,0,0,0,2.518,1.772c1.367,0,1.64,1.105,1.141,4.616-.584,4.115-.2,5,3.547,8.161,4.032,3.4,4.114,3.637,2.026,5.814-2.673,2.788-2.813,6.061-.3,6.973,5.3,1.919-2.363,6.857-8.862,5.711-3.093-.545-4.567.194-9.6,4.818-6.338,5.822-7.052,7.293-4.068,8.374,2.776,1.005,2.328,2.42-2.19,6.925-10.385,10.356-11.935,14.512-6.635,17.791,2.386,1.475,3.148,3.094,3.441,7.312.35,5.019.7,5.517,4.747,6.8a8.4,8.4,0,0,1,6.1,5.667c2.19,5.43,1.347,7.426-4.185,9.916a12.925,12.925,0,0,0-6.537,6.5c-1.56,3.34-2.849,4.5-4.992,4.5C239.762,428.306,238.462,427.82,238.462,427.225Z" transform="translate(-10.726 -13.231)" fill="#06f"/>
      <path id="path1336" d="M177.312,380.51c-1.5-1.5-2.721-3.345-2.721-4.093s-1.127-1.929-2.5-2.624-2.5-1.827-2.5-2.515,1.126-1.528,2.5-1.868c1.859-.459,2.5-1.611,2.5-4.482v-3.864l-8.629-.46c-8.123-.434-8.92-.737-13.629-5.18-5.089-4.805-8.031-6.586-14.585-8.834l-3.677-1.261,3.99-2.29c2.286-1.312,3.989-3.271,3.989-4.588a2.714,2.714,0,0,1,2.6-2.676c2.415-.351,5.881-7.013,8.218-15.8.356-1.334,3.135-4.985,6.179-8.114s5.533-6.67,5.533-7.871a4.534,4.534,0,0,1,2.5-3.446c2.665-1.346,3.451-4.726,1.1-4.726-.97,0-.923-.547.153-1.772.857-.974,3.178-1.771,5.16-1.771,2.767,0,3.6.547,3.6,2.362,0,2.04.834,2.362,6.1,2.362,3.9,0,6.667-.64,7.662-1.771,1.747-1.987,9.444-2.415,10.638-.591.426.65,2.624,1.181,4.886,1.181,4.63,0,8.255,2.994,8.255,6.817,0,1.373.564,2.825,1.252,3.226,1.95,1.137,1.479,3.836-1.074,6.156-1.279,1.163-2.663,4.173-3.076,6.691s-1.618,5.483-2.68,6.59c-2,2.088-2.673,7.145-.95,7.145.54,0,1.932,1.516,3.091,3.371,2.063,3.3,2.042,3.4-.982,4.7-1.7.731-3.09,2.073-3.09,2.982a5.2,5.2,0,0,1-2.035,3.248c-1.656,1.3-1.9,3.085-1.325,9.6.546,6.142.331,8-.925,8-.9,0-3.067,1.063-4.818,2.362a13.741,13.741,0,0,1-6.967,2.363c-4.032,0-5.983,2.809-4.718,6.793.663,2.086-3.042,7.383-5.164,7.383C180.549,383.245,178.809,382.015,177.312,380.51Z" transform="translate(-9.431 -13.065)" fill="#d6e6ff"/>
      <path id="path1334" d="M114.7,368.478a9.025,9.025,0,0,1-2.548-5.295c0-2.453-4.116-7.93-11.245-14.959-3.53-3.481-3.145-5.844,1.232-7.554,3.251-1.271,3.755-2.078,3.755-6,0-3.145-.839-5.275-2.739-6.946-2.933-2.579-6.637-3.155-7.9-1.227-2.254,3.443-15.644-1.176-15.644-5.4,0-1.125-1.378-1.691-4.115-1.691-9.226,0-20.915-9.059-20.915-16.209,0-2.264-.589-2.805-2.816-2.586a15.154,15.154,0,0,1-6.355-1.328c-4.786-2.172-7.614-.367-8.113,5.179-.332,3.681-.834,4.311-3.442,4.311-3.7,0-3.829-1.114-.593-5a35.252,35.252,0,0,0,4.52-8.725A108.348,108.348,0,0,1,42.2,284.625c2.729-5.372,2.959-7.9.9-9.847-1.113-1.05-1.12-2.107-.027-4.371,1.463-3.032,4.468-3.954,5.875-1.8,2.363,3.61,11.89-.432,11.89-5.043,0-3.282,2.451-3.508,3.726-.344.67,1.664,1.936,3.018,2.814,3.009,4.607-.047,7.218-1.7,8.5-5.369.76-2.175,2.473-4.281,3.807-4.681,1.65-.494,2.679-2.23,3.222-5.437.56-3.306,1.307-4.527,2.5-4.093.939.34,1.706.1,1.706-.527a13.3,13.3,0,0,1,.168-2.03c.309-1.625,4.36-3.681,8-4.058,3.325-.345,3.675.008,4.686,4.719,1.408,6.555,4.318,6.285,7.887-.73l2.589-5.09,5.233,5.359c2.878,2.948,5.233,6.429,5.233,7.736,0,1.564,2.3,3.819,6.729,6.595,9.018,5.652,18.509,6.77,25.312,2.981l4.656-2.593,2.615,2.573c1.844,1.814,2.153,2.736,1.049,3.125-.86.3-1.564,1.772-1.564,3.265,0,2.223,1,2.953,5.51,4.024,5.432,1.292,5.517,1.389,6.026,6.934a56.3,56.3,0,0,0,1.061,7.4c.4,1.306-.443,1.751-3.212,1.69-4.169-.091-6.783,2.282-6.843,6.215-.022,1.424-.6,2.916-1.292,3.318a3.637,3.637,0,0,0-1.252,2.884c0,1.184-2.489,4.713-5.533,7.843s-5.823,6.78-6.179,8.114c-2.337,8.785-5.8,15.448-8.218,15.8a2.71,2.71,0,0,0-2.6,2.713c0,1.358-1.568,3.177-3.747,4.348-2.061,1.107-3.75,2.715-3.754,3.574a5.918,5.918,0,0,1-1.886,3.334c-2.9,2.739-2.264,5.085,2.5,9.208,5.485,4.742,5.509,6.266.116,7.221a22.413,22.413,0,0,0-8.716,4.6l-4.452,3.849Z" transform="translate(-7.062 -11.839)" fill="#d6e6ff"/>
      <path id="path1332" d="M308.547,364.355c-3.439-2.33-5.6-7.653-5.6-13.78,0-8.119-1.508-9.055-13.265-8.233-9.3.651-13.589-.643-10.817-3.26,2.854-2.694,1.807-7.673-2.3-10.933-3.64-2.891-3.772-3.286-2.406-7.193.8-2.275,1.875-4.135,2.4-4.135,1.25,0,3.858-5.451,3.858-8.061,0-1.671.912-1.961,5.006-1.593l5.006.45v-4.723c0-3.085-.644-4.956-1.856-5.4a1.84,1.84,0,0,1-1.118-2.489c.525-1.292,2.506-1.816,6.862-1.816,5.218,0,6.124-.338,6.124-2.283a3.522,3.522,0,0,1,2.5-3.034,3.439,3.439,0,0,0,2.5-2.888c0-5.277,6.665-5.764,8.041-.588a5.21,5.21,0,0,0,3.73,3.554,14.015,14.015,0,0,1,5.744,3.715c2.525,2.74,3.391,2.95,9.662,2.339,5.938-.578,6.97-.377,7.479,1.462.338,1.221,2.624,2.708,5.346,3.478,2.616.74,5.455,2.14,6.309,3.111,2,2.281,8,2.277,10.008,0,.857-.975,3.336-1.772,5.508-1.772,3.891,0,4,.151,6.955,10.113s2.97,10.172.688,13.883a17.05,17.05,0,0,1-3.988,4.717c-.919.523-2.766,2.976-4.1,5.452-1.459,2.7-4.878,5.983-8.54,8.2-6.287,3.808-12.788,9.882-12.788,11.946,0,.644-1.549,1.494-3.441,1.891-7.794,1.634-21.181,5.552-24.285,7.109C314.139,365.414,310.546,365.711,308.547,364.355Z" transform="translate(-12.631 -12.8)" fill="#d6e6ff"/>
      <path id="path1330" d="M422.816,352.273a35.04,35.04,0,0,0-9.45-1.681c-9.026-.16-10.914-5.148-3.39-8.952,2.572-1.3,4.873-3.34,5.116-4.535.668-3.294-4.577-7.863-9.077-7.907-6.042-.059-8.23-2.361-8.23-8.657v-5.482h-4.933c-2.712,0-5.28.532-5.706,1.181a4.014,4.014,0,0,1-3.022,1.182c-3.461,0-6.921-13.52-6.5-25.39.186-5.193.931-9.788,1.659-10.212.777-.453.967-2.164.461-4.147-.473-1.856-1.408-6.3-2.076-9.873-.857-4.577-2.132-7.208-4.316-8.9-3.947-3.064-3.965-5.272-.044-5.272,4.416,0,6.954-4.167,6.954-11.417,0-3.391.564-6.494,1.252-6.9,1.794-1.046,1.548-7.373-.313-8.061-.861-.318.277-.962,2.529-1.432s4.4-1.316,4.768-1.883,4.02-1.029,8.108-1.029c4.123,0,7.435-.526,7.435-1.181s2.291-1.181,5.09-1.181c4.522,0,5-.265,4.3-2.363-.554-1.649-.225-2.362,1.093-2.362A3.494,3.494,0,0,1,417.183,217c1.092,1.668,5.848,1.4,8.467-.476,1.215-.871,3.509-3.911,5.1-6.756,3.257-5.832,7.549-7.246,12.354-4.068a11.173,11.173,0,0,0,4.827,1.85c1.117,0,3.667,1.328,5.667,2.952s4.139,2.953,4.754,2.954.815,4.17.44,9.336c-.431,5.927-.187,9.8.667,10.6.959.907.744,1.9-.752,3.459s-2.1,4.317-2.1,9.488c0,6.313.423,7.645,3.129,9.866s3.128,3.551,3.128,9.91c0,6.5.423,7.768,3.7,11.081,3.966,4.009,11.316,16.036,11.316,18.518a3.3,3.3,0,0,0,1.708,2.448c.94.52,2.653,2.689,3.806,4.82,1.891,3.491,1.907,4.056.17,5.7-2.667,2.518-2.429,4.4,1.2,9.444,3.558,4.951,3.8,7.412,1.38,13.979-1.829,4.958-4.877,7.765-8.435,7.765-1.948,0-9.843,6.953-14.023,12.348-1.4,1.8-1.963,1.656-6.356-1.64-3.735-2.8-6.07-3.619-10.343-3.619-4.819,0-5.788.447-7.649,3.537-1.829,3.034-2.844,3.525-7.138,3.455A34.665,34.665,0,0,1,422.816,352.273Z" transform="translate(-14.86 -11.038)" fill="#d6e6ff"/>
      <path id="path1328" d="M268.345,312.735a6.023,6.023,0,0,0-5.058-2.461c-2.587,0-3.617-.7-4.192-2.867-1.33-5-5.126-7.175-12.533-7.175-5.556,0-7.069-.462-8.7-2.659-1.666-2.244-3.12-2.659-9.337-2.659-4.051,0-7.73.558-8.176,1.24-.492.751-1.978.053-3.769-1.771a9.482,9.482,0,0,0-6.7-3.012c-2.057,0-4.088-.532-4.514-1.181s-2.148-1.182-3.828-1.182-3.055-.45-3.055-1-1.127-2.227-2.5-3.725c-3.017-3.284-3.256-8.572-.486-10.742,1.109-.869,3.85-1.431,6.09-1.249,4.981.4,5.564-1.073,5.767-14.591.213-14.2.74-15.289,7.605-15.713,7.966-.491,12.22-4.615,10.137-9.825-2.007-5.019-.192-9.039,4.3-9.526,2.9-.314,3.572-1.012,3.887-4.058a5.434,5.434,0,0,1,3.441-5,4.523,4.523,0,0,0,3.082-4c.026-3.72,1.654-5.79,5.812-7.4,3.162-1.22,4.109-.993,8.561,2.052,4.56,3.119,5.676,3.368,12.516,2.8,4.13-.345,9.411-.783,11.734-.972,4.511-.368,5.717.742,6.982,6.427a8.048,8.048,0,0,0,4.455,5.051c3.356,1.638,3.736,2.4,3.736,7.464,0,3.1.676,6.278,1.5,7.058.874.824,5.057,1.418,9.989,1.418,8.242,0,8.508.094,9.233,3.25a30.59,30.59,0,0,0,2.106,5.9c2.024,3.942-1.93,7.764-6.954,6.723-5.931-1.229-8.253,5.354-3.361,9.533a7.336,7.336,0,0,1,2.5,4.673A6.02,6.02,0,0,0,310,267.389c1,.946.661,1.514-1.252,2.088-1.446.433-2.642,1.416-2.658,2.185s-1.128,2.726-2.475,4.351-2.46,3.849-2.475,4.942a3.425,3.425,0,0,1-2.532,2.738,3.519,3.519,0,0,0-2.5,3.033c0,1.946-.906,2.283-6.123,2.283-4.43,0-6.334.518-6.884,1.869-1.323,3.256-.825,6.452,1.118,7.156,2.4.87,2.462,5.153.074,5.153A3.385,3.385,0,0,1,281.711,302c-1.682-2.57-4.345-.966-5.579,3.358a21.239,21.239,0,0,1-3.726,7.187l-2.433,2.647Z" transform="translate(-10.797 -10.979)" fill="#d6e6ff"/>
      <g transform="matrix(1, 0, 0, 1, 0, 0)" filter="url(#path1326)">
        <path id="path1326-2" data-name="path1326" d="M353.754,295.862c-.854-.971-3.693-2.372-6.309-3.112-2.8-.79-5.006-2.25-5.365-3.544-.808-2.917-4.372-4.1-7.252-2.4-3.61,2.127-7.225,1.626-10.236-1.422a16.136,16.136,0,0,0-5.569-3.624,5.873,5.873,0,0,1-3.581-3.719,5.213,5.213,0,0,0-3.674-3.574c-3.351-.793-2.879-3.54.8-4.642,2.546-.762,3.351-5.762,1.136-7.054-.689-.4-1.252-1.945-1.252-3.43a7.433,7.433,0,0,0-2.474-4.814c-3.195-2.73-2.17-4.16,2.979-4.16a9.292,9.292,0,0,0,6.184-2.161c2.192-2.286,2.834-9.069.962-10.161-.611-.357-1.481-2.514-1.934-4.8l-.825-4.148h-8.453c-4.907,0-9.083-.595-9.956-1.418-.826-.78-1.5-3.94-1.5-7.025,0-4.939-.405-5.79-3.413-7.15a9.084,9.084,0,0,1-4.527-5.085c-2.116-6.73-2.608-7.1-9.1-6.863-3.361.123-8.5.577-11.428,1.01-4.626.684-6.132.293-11.577-3.005-6.727-4.075-7.722-6.267-3.756-8.271,2.653-1.34,3.359-5.808,1.235-7.813-1.7-1.6.95-8.814,3.985-10.862,2.447-1.651,3.156-7.853,1.038-9.089-.689-.4-1.252-2.027-1.252-3.614,0-2.062.689-2.883,2.416-2.883a2.741,2.741,0,0,0,2.816-2.61,4.175,4.175,0,0,1,3.528-3.314c2.815-.632,3.129-1.29,3.129-6.536,0-5.8.034-5.845,5.287-7.568,4.3-1.41,6.07-1.468,9.475-.3a35.851,35.851,0,0,0,9.731,1.4c5.231-.028,5.673-.3,7.837-4.726,2.2-4.5,2.542-4.695,8.15-4.695,4.874,0,6.065-.447,7.093-2.659.834-1.795,2.514-2.776,5.172-3.019a11.233,11.233,0,0,0,6.139-2.658c1.519-1.585,3.842-2.3,7.487-2.3,3.014,0,5.912-.714,6.745-1.662.8-.914,4.183-1.845,7.508-2.067l6.047-.406.639,10.607c.51,8.45,1.086,10.853,2.836,11.815,4.421,2.43,9.348,7.686,9.348,9.973,0,5.974,7.534,13.091,13.856,13.091a6.079,6.079,0,0,1,4.627,2.363c1.078,1.63,2.918,2.362,5.932,2.362,3.725,0,4.369.4,4.369,2.717a6.441,6.441,0,0,0,1.465,4.1c1.118,1.055,1.084,2.468-.141,5.975-2.225,6.361-1.05,8.708,6.827,13.646,5.733,3.594,7.912,4.28,13.579,4.28,4.472,0,7.274.6,8.307,1.771a6.886,6.886,0,0,0,4.221,1.912c1.991.1,1.762.328-.91.886-2.556.534-4.4,2.213-6.486,5.9-3.207,5.667-7.44,9.2-8.705,7.268-.43-.657-2.773-1.194-5.206-1.194-3.371,0-4.579.562-5.079,2.362-.463,1.674-1.707,2.362-4.263,2.362-1.985,0-3.609.533-3.609,1.182s-3.312,1.181-7.435,1.181c-4.089,0-7.738.463-8.108,1.029s-2.375,1.35-4.454,1.743c-4.017.758-5.089,3.791-2.279,6.444,1.168,1.1,1.168,1.732,0,2.835-.826.78-1.5,4.117-1.5,7.417,0,7.079-2.578,11.249-6.954,11.249-4.555,0-4.343,6.624.325,10.138,2.679,2.017,3.42,3.625,3.557,7.723a47.166,47.166,0,0,0,.515,6.359c.54,1.866-.028,16.319-.731,18.608-.479,1.556-1.969,2.067-6.029,2.067-3.268,0-6.009.7-6.953,1.771C356.794,298.087,355.711,298.088,353.754,295.862Z" transform="translate(-12.12 -8.97)" fill="#06f" stroke="#fff" stroke-width="5"/>
      </g>
      <path id="path1324" d="M177.382,284.622a82.074,82.074,0,0,1-2.283-11.235c-.64-5.561-.711-5.639-6.438-7-3.185-.757-5.1-1.594-4.259-1.859,2.588-.814,1.733-6.783-1.365-9.531-3.667-3.252-5.579-3.233-9.326.09-4.931,4.373-13.243,3.7-21.99-1.784-4.78-3-7.087-5.231-7.087-6.865,0-1.332-2.772-5.188-6.16-8.57s-6.56-7.652-7.048-9.491c-.845-3.18-1.149-3.307-6.206-2.591-4.874.69-5.38.516-6.072-2.083-.415-1.56-3.3-5.05-6.407-7.756-6.186-5.382-6.471-6.535-4.225-17.1,1.266-5.949,1.175-6.978-.8-9.036-1.844-1.924-1.95-2.638-.616-4.155,1.3-1.479,1.311-2.792.051-6.816a53.163,53.163,0,0,0-2.634-6.95,2.366,2.366,0,0,1,.617-3.291c.93-.729,2.062-3.194,2.516-5.479s1.66-4.457,2.68-4.828c2.62-.949,5.517-6.7,5.517-10.959,0-3.221.4-3.6,3.779-3.6,4.839,0,13.492-5.133,15.011-8.9.645-1.6,1.89-2.91,2.767-2.911,2.546,0,10.983-8.894,10.983-11.576a3.481,3.481,0,0,0-2.338-3.141,12.994,12.994,0,0,1-4.574-3.034c-2.168-2.261-2.145-2.333.773-2.337,5.243-.008,10.929-4.148,11.374-8.281.391-3.627.441-3.654,2.9-1.511,6.907,6.019,10.728,7.721,15.654,6.978,5.418-.818,7.951,1.084,4.562,3.424-3.262,2.251-2.652,8.432,1.06,10.727,3.931,2.432,4,4.886.171,6.53-2.582,1.112-3.052,2.335-3.7,9.66-.805,9.062-.216,10.492,5.47,13.268,4.709,2.3,5.444,5.886,1.683,8.212-4.381,2.71-4.282,9.72.151,10.771a14.428,14.428,0,0,0,5.633.133c1.975-.488,2.483-.023,2.483,2.267,0,3.655,3.165,4.859,6.125,2.329,2.539-2.169,4.114-1.145,5.686,3.7.574,1.766,2.429,3.032,5.639,3.848,2.632.669,5.483,2.011,6.336,2.98,2.091,2.378,10,2.372,10-.008,0-2.517,2.2-2.194,4.045.59a6.054,6.054,0,0,0,5.047,2.363c2.46,0,3.8.782,4.562,2.658,2.088,5.155,5.8,7.182,11.553,6.314,3.428-.518,5.554-.324,6.132.558,1.186,1.812-1.409,8.416-4.037,10.273a7.645,7.645,0,0,0-2.5,4.72c-.31,2.539-1.188,3.359-4.1,3.831-4.6.744-6.922,6.53-4.778,11.894,1.187,2.968.992,3.573-1.689,5.231a9.831,9.831,0,0,1-7.146,1.146c-6.346-1.124-7.463,1.118-8.266,16.591-.382,7.363-1.062,13.733-1.511,14.155s-2.018.067-3.485-.79c-2.406-1.406-3.016-1.183-6.231,2.281-1.959,2.111-4.192,3.84-4.962,3.84-1.9,0-1.766,1.849.267,3.766a12.1,12.1,0,0,1,2.527,4.811c.474,1.78,1.413,3.237,2.089,3.237a1.208,1.208,0,0,1,1.227,1.181,1.272,1.272,0,0,1-1.34,1.181,6.328,6.328,0,0,0-3.218,1.772,8.829,8.829,0,0,1-5.258,1.772C179.43,290.234,178.819,289.551,177.382,284.622Z" transform="translate(-8.283 -8.661)" fill="#d6e6ff"/>
      <path id="path1322" d="M51.2,263.715c-.466-.711-3.031-1.1-5.706-.855-3.024.272-4.86-.062-4.86-.884,0-.726-2.186-1.939-4.858-2.695-6.48-1.833-8.062-3.75-6.433-7.794,2.253-5.594,1.523-9.446-2.476-13.063-2.065-1.868-3.739-3.961-3.72-4.652s1.748-3.382,3.841-5.981l3.806-4.726-.861-12.405c-.57-8.208-1.646-13.957-3.182-16.992-2.276-4.5-2.273-4.651.149-7.861,2.777-3.681,3.27-10.543.916-12.765-1.238-1.169-1.174-1.694.313-2.581a9.353,9.353,0,0,1,3.966-1.132c2.743-.023,7.287-5.531,7.287-8.832,0-1.424,1.406-3.835,3.124-5.359,2.832-2.511,3.424-2.619,6.327-1.152,2.872,1.451,3.785,1.319,8.842-1.275a37.992,37.992,0,0,0,7.634-4.96,6.943,6.943,0,0,1,4.15-2.067,5.719,5.719,0,0,0,3.714-1.772,7.6,7.6,0,0,1,5-1.772,48.123,48.123,0,0,0,7.356-.739c3.292-.621,3.911-1.276,3.911-4.135,0-2.183.65-3.4,1.818-3.4,1.44,0,1.686,1.293,1.185,6.2-1.193,11.678-1.836,13.773-4.932,16.072a11.62,11.62,0,0,0-3.859,5.932c-.424,2-1.548,4.248-2.5,4.992-2.111,1.654-2.253,6-.258,7.885.851.8,1.417,4.6,1.346,9.027-.079,4.918.452,8.09,1.49,8.9,1.17.916,1.331,2.636.586,6.273a63.7,63.7,0,0,0-1.081,10.007c-.048,4.44.575,5.545,5.6,9.916,3.109,2.705,6,6.22,6.422,7.81.69,2.6,1.319,2.85,6.171,2.486,6.527-.49,7.557,1.4,4.62,8.453-2.065,4.963-4.094,5.261-4.094.6,0-1.548-.583-3.155-1.3-3.571-2.458-1.433-11.624.893-14.6,3.707-1.642,1.55-3.45,2.818-4.02,2.818s-1.4,2.18-1.855,4.845c-.575,3.4-1.543,5.023-3.235,5.441-1.35.333-3.033,2.363-3.817,4.607-1.685,4.82-5.176,5.329-7.238,1.056-.784-1.624-2.17-2.954-3.079-2.954a5.158,5.158,0,0,0-4.657,4.78c0,1.83-3.673,5.853-5.344,5.853C52.389,265.007,51.663,264.425,51.2,263.715Z" transform="translate(-6.882 -9.426)" fill="#d6e6ff"/>
      <path id="path1320" d="M238.982,196.514c0-.894-2.151-1.136-6.546-.738-6.935.629-8.453-.188-10.987-5.905-.849-1.916-2.223-2.658-4.919-2.658-2.46,0-4.2-.809-5.082-2.362-1.668-2.943-10.012-3.435-10.012-.591,0,2.46-2.941,2.217-5.5-.455a12.091,12.091,0,0,0-5.553-2.872c-2.348-.443-4.085-1.965-5.548-4.861-2.241-4.436-6.39-5.668-9.429-2.8-1.169,1.1-1.5.674-1.5-1.927,0-3.107-.29-3.3-4.067-2.758-7.722,1.116-9.709-1.9-3.891-5.9,4.8-3.3,3.443-9.452-2.965-13.392-4.5-2.765-4.614-3.02-4.256-9.249.3-5.124.974-6.855,3.393-8.652,4.106-3.049,4.057-8.253-.1-10.826-3.511-2.172-4.079-4.829-1.252-5.852a2.791,2.791,0,0,0,1.877-2.268c0-2.03,4.633-11.125,6.1-11.984.615-.358,2.9-.065,5.073.651,3.305,1.087,4.358.957,6.4-.788,1.345-1.149,2.446-2.748,2.446-3.552,0-1.649,2.757-2.9,6.4-2.9a3.565,3.565,0,0,0,3.161-1.772c1.055-2.6,8.27-2.289,10.067.429,1.094,1.654,3.659,2.406,10.321,3.026,7.565.7,9.369,1.328,12.3,4.254,2.807,2.805,4.917,3.6,11.568,4.359l8.136.928.39,4.462c.419,4.789,3.349,7.172,15.884,12.921,4.924,2.258,5.628,3.053,5.628,6.355,0,2.488.746,4.058,2.19,4.609,1.968.75,1.916.935-.508,1.819-3.274,1.194-5.107,7.531-2.9,10.037,1.524,1.734,1.328,1.884-4.723,3.587-.861.242-1.564,1.52-1.564,2.84a2.131,2.131,0,0,1-2.34,2.4c-3.415,0-4.642,7.921-1.7,10.987,2.032,2.12,2,2.345-.663,4.379-1.543,1.179-2.805,2.724-2.805,3.431a1.274,1.274,0,0,1-1.252,1.288c-1.715,0-1.589,9.843.148,11.481,1.031.973.7,1.731-1.252,2.883a5.586,5.586,0,0,0-2.651,4.19,4.773,4.773,0,0,1-2.421,3.851C240.916,198.217,238.982,198.175,238.982,196.514Z" transform="translate(-9.994 -8.425)" fill="#d6e6ff"/>
      <path id="path1318" d="M433.892,192.464c-1.033-1.174-3.835-1.772-8.308-1.772-5.656,0-7.846-.688-13.525-4.247-3.726-2.335-7.1-5.032-7.485-5.992-.816-2.006,1.284-6.3,3.08-6.3,1.942,0,1.345-2.72-1.3-5.907a11.018,11.018,0,0,1-2.475-5.612c-.028-2.686-.628-2.987-6.285-3.156-2.259-.066-3.027-.668-2.761-2.16.3-1.662-.549-2.067-4.3-2.067-7.851,0-15.463-6.444-15.463-13.091,0-2.286-4.927-7.543-9.348-9.973-1.754-.964-2.328-3.379-2.847-11.979l-.651-10.772,5.165-.824c2.841-.453,5.443-1.248,5.782-1.766s3.229-1.312,6.422-1.764c5.95-.842,7.3-1.809,15.474-11.063,2.394-2.71,4.963-4.928,5.711-4.928,2.372,0,8.459-6.891,10.161-11.5,2.315-6.275,2.09-8.054-1.279-10.138-2.173-1.344-3.128-3.267-3.605-7.259-.442-3.7-1.58-6.193-3.572-7.824l-2.923-2.394,5.755-4.956c3.166-2.726,6.086-5.887,6.489-7.024,1.045-2.943,4.894-2.557,8.829.886,1.857,1.624,3.934,2.954,4.616,2.954s2.448,1.063,3.926,2.363,3.62,2.363,4.76,2.363c4.845,0,10.185,10.993,9.088,18.71-.438,3.077-.205,4.918.62,4.918,2.213,0,4.152,7.638,3.267,12.867-.615,3.629-.326,5.447,1.1,6.952,1.065,1.121,2.343,4.106,2.84,6.633a35.378,35.378,0,0,0,3.846,9.451c1.618,2.671,2.948,5.939,2.956,7.264s1.16,4.515,2.558,7.089c3.011,5.54,6.932,19.621,8.162,29.311,1.122,8.826-.933,15.184-5.511,17.055-6.364,2.6-11.738,6.022-13.726,8.741a41.133,41.133,0,0,1-3.619,4.3,6.137,6.137,0,0,0-1.615,3.84c0,1.254-.459,2.278-1.02,2.278s-1.96,1.861-3.109,4.136C437.482,194.641,436.244,195.139,433.892,192.464Z" transform="translate(-14.672 -7.178)" fill="#d6e6ff"/>
      <path id="path1316" d="M23.98,166.164c0-.647-3.924-4.873-8.72-9.392S6.523,147.811,6.5,146.9s2.493-4.208,5.591-7.334,5.632-6.272,5.632-6.991,1.5-4.2,3.33-7.726c2.953-5.693,3.173-6.922,1.939-10.854a77.557,77.557,0,0,1-2.181-9.751c-.434-2.923-1.194-7.974-1.688-11.223a31.231,31.231,0,0,0-2.39-8.47c-.923-1.585-1.192-4.626-.706-7.975.74-5.1,1.013-5.415,4.683-5.464a33.657,33.657,0,0,0,8.9-1.857c2.753-.993,7.54-2.572,10.638-3.51A39.277,39.277,0,0,0,49.011,61.9c3.545-2.426,10.228-4.317,23.615-6.68,5.728-1.011,10.263-2.552,11.97-4.065,1.947-1.727,4.413-2.437,8.459-2.437,10.3,0,19.165-5.437,24.658-15.125,1.519-2.68,7.467-6.14,10.556-6.14,2.416,0,4.317,5.1,4.914,13.2.449,6.088.23,6.812-2.416,7.949-3.611,1.553-3.885,6.29-.545,9.442,1.859,1.756,2.229,3.371,1.728,7.563-.545,4.563-.255,5.523,2.016,6.67,2.98,1.506,3.727,7.164.946,7.164-1.2,0-1.9,2.335-2.381,7.936-.371,4.365-1.293,8.131-2.048,8.369s-1.375,1.944-1.375,3.793c0,4.337-5.13,8.257-10.806,8.257-6,0-5.672,3.713.725,8.087l4.937,3.376-4.677,4.312c-2.573,2.37-5.371,4.311-6.219,4.311s-2.069,1.307-2.713,2.9c-1.42,3.525-10.241,9.272-13.361,8.705-1.823-.331-2.179-1.365-1.869-5.42l.383-5.009H91.033c-4.1,0-4.476.288-4.476,3.4,0,2.859-.619,3.513-3.911,4.135a48.251,48.251,0,0,1-7.356.739,7.6,7.6,0,0,0-5,1.771,5.86,5.86,0,0,1-3.837,1.772,5.861,5.861,0,0,0-3.935,2.067c-3.078,3.842-9.1,5.981-15.056,5.348-5.111-.544-5.813-.292-8.274,2.97-1.479,1.961-2.689,4.342-2.689,5.292,0,2.635-4.914,7.951-7.35,7.951a6.149,6.149,0,0,0-3.664,1.419C24.656,166.7,23.98,166.81,23.98,166.164Z" transform="translate(-6.5 -6.981)" fill="#d6e6ff"/>
      <path id="path1314" d="M287.265,132.7a21.039,21.039,0,0,0-7.509-.812c-5.339.425-8.8-2.339-8.81-7.033,0-2.885-1.195-3.822-10.638-8.375-10.625-5.123-10.632-5.128-10.632-9.784,0-4.588-.237-4.847-5.847-6.4-2.613-.721-.277-5.041,3.531-6.529a6.428,6.428,0,0,0,4.417-4.823c.457-2.156,1.5-3.375,2.887-3.375,3.064,0,11.282-7.637,11.282-10.484,0-2.751-1.445-3.788-6.693-4.8-2.785-.538-4.032-1.609-4.727-4.059a9.934,9.934,0,0,0-2.876-4.693c-2-1.41-1.466-6.681.675-6.681.609,0,1.106-2.127,1.106-4.726,0-4.232.321-4.726,3.078-4.726,4.676,0,11.875-3.81,11.91-6.3.027-1.934.876-2.1,7.852-1.57,4.3.329,11.2,1.119,15.331,1.754,24.386,3.753,30.626,4.282,49.436,4.195,11.357-.053,26-.707,32.539-1.454s16.114-1.651,21.277-2.009l9.386-.651-4.694,3.9c-5.523,4.6-5.954,7.923-1.564,12.067,2.3,2.172,3.128,4.212,3.128,7.706,0,3.7.659,5.16,2.968,6.588,2.739,1.694,2.853,2.152,1.479,5.925-1.7,4.677-5.813,9.159-11.373,12.4a34.81,34.81,0,0,0-7.9,7.574c-3.124,4.107-5.269,5.63-9.324,6.625-2.9.709-9.207,2.649-14.026,4.31a80.14,80.14,0,0,1-14.649,3.577c-3.239.308-6.546,1.306-7.35,2.22-.833.949-3.731,1.662-6.745,1.662-3.7,0-5.966.711-7.55,2.363a7.82,7.82,0,0,1-4.656,2.362c-3.469,0-7.233,2.174-7.233,4.177,0,1.255-1.5,1.73-5.438,1.73-5.753,0-8.556,1.878-10.142,6.793-.663,2.055-1.763,2.641-4.841,2.583A25.554,25.554,0,0,1,287.265,132.7Z" transform="translate(-11.927 -7.207)" fill="#d6e6ff"/>
      <path id="path1312" d="M146.417,102.28c-8.323-5.773-8.958-6.843-8.411-14.166.361-4.825,1.019-6.793,2.27-6.793s1.762-1.528,1.762-5.275c0-4.046-.576-5.566-2.475-6.525-2.091-1.056-2.359-2.054-1.723-6.427.629-4.338.32-5.524-1.905-7.324-3.435-2.776-3.348-3.739.484-5.387,3.081-1.325,3.126-1.535,2.357-10.9-.431-5.254-1.538-10.693-2.459-12.089-1.548-2.342-1.368-2.649,2.336-4,9.485-3.453,13.336-5.367,13.367-6.644.018-.749,2.707-1.652,5.976-2,11.855-1.28,3.167-1.594,7.781-4.477,4.6-2.872,22.941-4.376,38.307-3.54,14.642.8,26.3,14.863,25.6,16.948-.358,1.063.062,5.616-3.245,3.65S212.089,12.078,210.026,13.5c-3.749,2.587,6.419,11.36,6.419,13.823,0,3.551.359,10.548,3.584,13.308,3.839,3.286,7,1.028,15.587.663,12.589-.536,15.682,2.645,10.931,11.243-2.575,4.663-2.359,9.033.531,10.738a7.028,7.028,0,0,1,2.816,4.668c.336,2.724,1.191,3.4,5.332,4.2a23.944,23.944,0,0,1,5.511,1.508c1.191,1.124-8.045,8.823-10.6,8.835-1.919.009-2.858.952-3.375,3.387-.489,2.313-1.907,3.841-4.506,4.857a6.365,6.365,0,0,0-4.584,5.476c-.716,3.6-1.119,3.922-4.1,3.261a18.271,18.271,0,0,1-6.606-3.629c-3.412-2.992-10.094-4.992-16.842-5.041a9.3,9.3,0,0,1-6.139-2.391c-2.851-2.974-13.7-3.405-14.845-.591-.4.975-2,1.78-3.576,1.79-3.381.021-4.867.926-6.761,4.117-1.1,1.859-2.7,2.363-7.508,2.363-5.577,0-6.268.314-7.96,3.621-1.464,2.863-2.645,3.619-5.632,3.609a18.549,18.549,0,0,0-5.656.775C150.969,104.549,148.578,103.778,146.417,102.28Z" transform="translate(-9.416 -6.5)" fill="#d6e6ff"/>
    </g>
    <g transform="matrix(1, 0, 0, 1, 345, 3754.68)" filter="url(#Path_15242)">
      <path id="Path_15242-2" data-name="Path 15242" d="M470.71-713.495l.734-.643,1.533-1.6.468-.3.842-.9.952-1.393.767-.689,1.955-2.131.828-1.131,1.87-2.088,1.048-2.17.746.617-.266.428.019.592.035.406-.2.359-1.033.143-.419.971-.641.363-.36.873L477.994-720l-.546.293-.391.533-.328.838-.317.591-1.387,1.77-.543.324-1.413,1.459-.562.106-.583.611-.109.381-.815-.293Z" transform="translate(-223.7 785.87)" fill="rgba(255,255,255,0.54)" fill-rule="evenodd"/>
    </g>
    <g transform="matrix(1, 0, 0, 1, 345, 3754.68)" filter="url(#Path_15243)">
      <path id="Path_15243-2" data-name="Path 15243" d="M471.826-703.365l-.824-.293-.292-.107" transform="translate(-223.7 776.14)" fill="none" stroke="#646464" stroke-linejoin="round" stroke-width="1.417"/>
    </g>
    <g transform="matrix(1, 0, 0, 1, 345, 3754.68)" filter="url(#Ellipse_467)">
      <ellipse id="Ellipse_467-2" data-name="Ellipse 467" cx="9.254" cy="9.254" rx="9.254" ry="9.254" transform="translate(322.27 179.64)" fill="#fff"/>
    </g>
    <g transform="matrix(1, 0, 0, 1, 345, 3754.68)" filter="url(#Ellipse_468)">
      <ellipse id="Ellipse_468-2" data-name="Ellipse 468" cx="6.995" cy="6.995" rx="6.995" ry="6.995" transform="translate(232.84 310.2)" fill="#fff"/>
    </g>
    <g transform="matrix(1, 0, 0, 1, 345, 3754.68)" filter="url(#Ellipse_469)">
      <ellipse id="Ellipse_469-2" data-name="Ellipse 469" cx="13.065" cy="13.065" rx="13.065" ry="13.065" transform="translate(319 176.38)" fill="#fff" opacity="0.4"/>
    </g>
    <g transform="matrix(1, 0, 0, 1, 345, 3754.68)" filter="url(#Ellipse_470)">
      <ellipse id="Ellipse_470-2" data-name="Ellipse 470" cx="9.875" cy="9.875" rx="9.875" ry="9.875" transform="translate(229.96 307.32)" fill="#fff" opacity="0.4"/>
    </g>
    <g transform="matrix(1, 0, 0, 1, 345, 3754.68)" filter="url(#Ellipse_471)">
      <ellipse id="Ellipse_471-2" data-name="Ellipse 471" cx="16.876" cy="16.876" rx="16.876" ry="16.876" transform="translate(314.65 172.02)" fill="#fff" opacity="0.1"/>
    </g>
    <g transform="matrix(1, 0, 0, 1, 345, 3754.68)" filter="url(#Ellipse_472)">
      <ellipse id="Ellipse_472-2" data-name="Ellipse 472" cx="12.755" cy="12.755" rx="12.755" ry="12.755" transform="translate(227.08 304.44)" fill="#fff" opacity="0.1"/>
    </g>
  </g>
</svg>
