<svg xmlns="http://www.w3.org/2000/svg" width="14" height="14" viewBox="0 0 14 14">
  <path id="Path_14504" data-name="Path 14504" d="M9.691-20.078a3.774,3.774,0,0,0-3.769-3.769,3.774,3.774,0,0,0-3.769,3.769,3.774,3.774,0,0,0,3.769,3.769A3.774,3.774,0,0,0,9.691-20.078Zm4.308,7A1.084,1.084,0,0,1,12.922-12a1.056,1.056,0,0,1-.757-.32L9.28-15.2a5.907,5.907,0,0,1-3.357,1.043A5.921,5.921,0,0,1,0-20.078,5.921,5.921,0,0,1,5.923-26a5.921,5.921,0,0,1,5.923,5.923A5.91,5.91,0,0,1,10.8-16.721l2.886,2.886a1.084,1.084,0,0,1,.311.757Z" transform="translate(0 26.001)" fill="#002153"/>
</svg>
