<svg xmlns="http://www.w3.org/2000/svg" width="96" height="114.902" viewBox="0 0 96 114.902"><g transform="translate(-1081 -121)"><path d="M77.969,43.435a3.038,3.038,0,0,0-.57.054,3.893,3.893,0,0,0-6.961.563,2.817,2.817,0,0,0-.463-.039,2.75,2.75,0,1,0,0,5.5h7.994a3.039,3.039,0,1,0,0-6.078Zm0,5H69.976a1.669,1.669,0,1,1,0-3.338,1.648,1.648,0,0,1,.62.12l.584.235.144-.613a2.81,2.81,0,0,1,5.3-.494l.2.459.472-.169a1.959,1.959,0,1,1,.667,3.8Z" transform="translate(1083.686 156.089)" stroke="#000" stroke-width="1"/><path d="M76.348,43.157a2.579,2.579,0,0,0-.484.046,3.306,3.306,0,0,0-5.91.478,2.392,2.392,0,0,0-.393-.033,2.335,2.335,0,1,0,0,4.67h6.787a2.58,2.58,0,1,0,0-5.161Zm0,4.243H69.56a1.417,1.417,0,0,1,0-2.834,1.4,1.4,0,0,1,.527.1l.5.2.123-.52a2.386,2.386,0,0,1,4.5-.419l.173.39.4-.144a1.663,1.663,0,1,1,.566,3.226Z" transform="translate(1025.333 138.897)" stroke="#000" stroke-width="1"/><g transform="translate(1081 139.902)" fill="none" stroke="#000" stroke-width="2"><circle cx="48" cy="48" r="48" stroke="none"/><circle cx="48" cy="48" r="47" fill="none"/></g><g transform="translate(1124 199.902)" fill="none" stroke="#000" stroke-width="2"><circle cx="5" cy="5" r="5" stroke="none"/><circle cx="5" cy="5" r="4" fill="none"/></g><g transform="translate(1128.575 143.01)" fill="none"><path d="M0-9.5s.417-.5.624-.5.6.5.6.5v2.41H0Z" stroke="none"/><path d="M 0.6238554716110229 -10.00000190734863 C 0.8311054706573486 -10.00000190734863 1.220535516738892 -9.497852325439453 1.220535516738892 -9.497852325439453 L 1.220535516738892 -7.087562561035156 L -4.529953002929688e-06 -7.087562561035156 L -4.529953002929688e-06 -9.497852325439453 C -4.529953002929688e-06 -9.497852325439453 0.4166054725646973 -10.00000190734863 0.6238554716110229 -10.00000190734863 Z" stroke="none"/></g><line y2="3.274" transform="translate(1129.149 201.595)" fill="none" stroke="#000" stroke-width="2"/><line y2="7.219" transform="translate(1129.149 121)" fill="none" stroke="#000" stroke-width="2"/><line x1="3.572" transform="translate(1127.363 123.456)" fill="none" stroke="#000" stroke-width="2"/><line x1="4.167" transform="translate(1127.065 131.195)" fill="none" stroke="#000" stroke-width="2"/><line x1="4.167" transform="translate(1127.065 137.447)" fill="none" stroke="#000" stroke-width="2"/><line x1="6.549" transform="translate(1125.874 148.46)" fill="none" stroke="#000" stroke-width="2"/><path d="M9.706,0H0" transform="translate(1124.312 163.791)" stroke="#000" stroke-width="2"/><line x1="17.563" transform="translate(1120.367 184.628)" fill="none" stroke="#000" stroke-width="2"/><line x1="16.962" transform="translate(1120.668 194.6)" fill="none" stroke="#000" stroke-width="2"/><line x1="17.563" transform="translate(1120.367 193.856)" fill="none" stroke="#000" stroke-width="2"/><line x1="19.944" transform="translate(1119.177 217.372)" fill="none" stroke="#000" stroke-width="2"/><line y2="22.218" transform="translate(1137.193 195.005)" fill="none" stroke="#000" stroke-width="2"/><line y2="9.95" transform="translate(1137.479 184.27)" fill="none" stroke="#000" stroke-width="2"/><line y2="14.089" transform="translate(1134.489 170.158)" fill="none" stroke="#000" stroke-width="2"/><line y2="11.425" transform="translate(1133.167 152.73)" fill="none" stroke="#000" stroke-width="2"/><line y2="8.794" transform="translate(1131.984 140.11)" fill="none" stroke="#000" stroke-width="2"/><line y2="6.374" transform="translate(1130.8 131.516)" fill="none" stroke="#000" stroke-width="2"/><line y2="14.089" transform="translate(1136.706 170.158)" fill="none" stroke="#000" stroke-width="2"/><line y2="3.065" transform="translate(1138.712 216.986)" fill="none" stroke="#000" stroke-width="2"/><line y2="14.951" transform="translate(1138.333 220.009)" fill="none" stroke="#000" stroke-width="2"/><line y2="22.218" transform="translate(1121.105 195.005)" fill="none" stroke="#000" stroke-width="2"/><line y2="9.95" transform="translate(1120.818 184.27)" fill="none" stroke="#000" stroke-width="2"/><line y2="14.089" transform="translate(1123.808 170.158)" fill="none" stroke="#000" stroke-width="2"/><line y2="11.425" transform="translate(1125.131 152.73)" fill="none" stroke="#000" stroke-width="2"/><line y2="8.794" transform="translate(1126.313 140.11)" fill="none" stroke="#000" stroke-width="2"/><line y2="6.374" transform="translate(1127.498 131.516)" fill="none" stroke="#000" stroke-width="2"/><line y2="14.089" transform="translate(1121.591 170.158)" fill="none" stroke="#000" stroke-width="2"/><line y2="3.065" transform="translate(1119.586 216.986)" fill="none" stroke="#000" stroke-width="2"/><line y2="14.951" transform="translate(1119.965 220.009)" fill="none" stroke="#000" stroke-width="2"/><line x1="19.944" transform="translate(1119.177 219.605)" fill="none" stroke="#000" stroke-width="2"/><line x1="17.563" transform="translate(1120.367 169.744)" fill="none" stroke="#000" stroke-width="2"/><line x1="4.019" y2="6.251" transform="translate(1120.665 163.642)" fill="none" stroke="#000" stroke-width="2"/><line x2="4.019" y2="6.251" transform="translate(1133.614 163.642)" fill="none" stroke="#000" stroke-width="2"/><line x1="2.53" y2="4.316" transform="translate(1123.94 148.46)" fill="none" stroke="#000" stroke-width="2"/><line x2="2.53" y2="4.316" transform="translate(1131.828 148.46)" fill="none" stroke="#000" stroke-width="2"/><line x1="1.637" y2="3.126" transform="translate(1125.874 137.447)" fill="none" stroke="#000" stroke-width="2"/><line x2="1.637" y2="3.126" transform="translate(1130.786 137.447)" fill="none" stroke="#000" stroke-width="2"/><line x1="1.786" y2="3.572" transform="translate(1127.363 127.326)" fill="none" stroke="#000" stroke-width="2"/><line x2="1.786" y2="3.572" transform="translate(1129.149 127.326)" fill="none" stroke="#000" stroke-width="2"/><line x1="10.27" transform="translate(1124.088 152.479)" fill="none" stroke="#000" stroke-width="2"/><line x1="5.209" transform="translate(1126.47 131.195)" fill="none" stroke="#000" stroke-width="2"/><line x1="1.935" transform="translate(1129.149 204.423)" fill="none" stroke="#000" stroke-width="2"/><path d="M-7614.665-3972.756v-4.084s.344-2.881,1.8-2.881,1.728,2.881,1.728,2.881v4.084Zm-4.167,0v-4.084s.345-2.881,1.8-2.881,1.726,2.881,1.726,2.881v4.084Zm-4.168,0v-4.084s.344-2.881,1.806-2.881,1.726,2.881,1.726,2.881v4.084Zm8.186-9.376v-2.443s.107-1.159.555-1.159.53,1.159.53,1.159v2.443Zm-1.934,0v-2.443s.105-1.159.553-1.159.532,1.159.532,1.159v2.443Zm-1.936,0v-2.443s.107-1.159.555-1.159.53,1.159.53,1.159v2.443Zm-1.934,0v-2.443s.1-1.159.555-1.159.53,1.159.53,1.159v2.443Zm2.521-5.209v-4.222s.264-2.883,1.379-2.883,1.318,2.883,1.318,2.883v4.222Zm-.477-15.927v-7.943a5.053,5.053,0,0,1,1.865-.947c.62,0,1.783.947,1.783.947v7.943Zm.673-15.33v-4.552s.787-.947,1.177-.947,1.127.947,1.127.947v4.552Z" transform="translate(8745.934 4165.19)"/></g></svg>